<?xml version="1.0" encoding="UTF-8"?>
<svg id="Layer_1" xmlns="http://www.w3.org/2000/svg" version="1.1" viewBox="0 0 3300 2200">
  <!-- Generator: Adobe Illustrator 30.0.0, SVG Export Plug-In . SVG Version: 2.1.1 Build 123)  -->
  <defs>
    <style>
      .st0 {
        stroke: #00aeef;
      }

      .st0, .st1, .st2 {
        fill: none;
        stroke-width: .5px;
      }

      .st1 {
        stroke: #000;
      }

      .st3, .st4, .st5 {
        isolation: isolate;
      }

      .st6 {
        fill: #fff;
      }

      .st4 {
        font-family: Helvetica-Bold, Helvetica;
        font-weight: 700;
      }

      .st4, .st5 {
        font-size: 13px;
      }

      .st5 {
        font-family: Helvetica, Helvetica;
      }

      .st7 {
        fill: #27aae1;
      }

      .st2 {
        stroke: #27aae1;
      }
    </style>
  </defs>
  <g id="Layer_11" data-name="Layer_1">
    <g id="Notes">
      <rect id="artboard" class="st6" x="-47.7" y="-53.7" width="3300" height="2200"/>
      <line class="st1" x1="252.7" y1="288" x2="3025.7" y2="288"/>
      <g class="st3">
        <text class="st4" transform="translate(252.7 318)"><tspan x="0" y="0">Weight/Scale Variations</tspan></text>
      </g>
      <g class="st3">
        <text class="st5" transform="translate(523.8 318)"><tspan x="0" y="0">Ultralight</tspan></text>
      </g>
      <g class="st3">
        <text class="st5" transform="translate(833.5 318)"><tspan x="0" y="0">Thin</tspan></text>
      </g>
      <g class="st3">
        <text class="st5" transform="translate(1128.7 318)"><tspan x="0" y="0">Light</tspan></text>
      </g>
      <g class="st3">
        <text class="st5" transform="translate(1416.8 318)"><tspan x="0" y="0">Regular</tspan></text>
      </g>
      <g class="st3">
        <text class="st5" transform="translate(1713.1 318)"><tspan x="0" y="0">Medium</tspan></text>
      </g>
      <g class="st3">
        <text class="st5" transform="translate(2005.9 318)"><tspan x="0" y="0">Semibold</tspan></text>
      </g>
      <g class="st3">
        <text class="st5" transform="translate(2316.7 318)"><tspan x="0" y="0">Bold</tspan></text>
      </g>
      <g class="st3">
        <text class="st5" transform="translate(2608 318)"><tspan x="0" y="0">Heavy</tspan></text>
      </g>
      <g class="st3">
        <text class="st5" transform="translate(2907.2 318)"><tspan x="0" y="0">Black</tspan></text>
      </g>
      <line class="st1" x1="252.7" y1="1899" x2="3025.7" y2="1899"/>
      <path d="M261.9,1929.9c4.4,0,7.9-3.5,7.9-7.9s-3.5-7.9-7.9-7.9-7.9,3.5-7.9,7.9,3.5,7.9,7.9,7.9ZM261.9,1928.4c-3.5,0-6.4-2.9-6.4-6.4s2.9-6.4,6.4-6.4,6.4,2.9,6.4,6.4-2.9,6.4-6.4,6.4ZM262.7,1924.8v-5.7c0-.4-.3-.8-.7-.8s-.7.3-.7.8v5.7c0,.4.3.7.7.7s.7-.3.7-.7ZM259.1,1922.7h5.7c.4,0,.7-.3.7-.7s-.3-.7-.7-.7h-5.7c-.4,0-.8.3-.8.7s.3.7.8.7Z"/>
      <path d="M282.9,1931.9c5.5,0,10-4.5,10-10s-4.5-10-10-10-10,4.5-10,10,4.5,10,10,10ZM282.9,1930.3c-4.6,0-8.3-3.7-8.3-8.3s3.7-8.3,8.3-8.3,8.3,3.7,8.3,8.3-3.7,8.3-8.3,8.3ZM283.7,1925.7v-7.4c0-.5-.3-.8-.8-.8s-.8.3-.8.8v7.4c0,.5.3.8.8.8s.8-.3.8-.8ZM279.2,1922.8h7.4c.5,0,.8-.3.8-.8s-.3-.8-.8-.8h-7.4c-.5,0-.8.3-.8.8s.3.8.8.8Z"/>
      <path d="M309.6,1934.7c7,0,12.7-5.7,12.7-12.7s-5.7-12.7-12.7-12.7-12.7,5.7-12.7,12.7,5.7,12.7,12.7,12.7ZM309.6,1932.9c-6,0-10.9-4.9-10.9-10.9s4.9-10.9,10.9-10.9,10.9,4.9,10.9,10.9-4.9,10.9-10.9,10.9ZM310.5,1926.8v-9.7c0-.5-.4-.9-.9-.9s-.9.4-.9.9v9.7c0,.5.4.9.9.9s.9-.4.9-.9ZM304.7,1922.9h9.7c.5,0,.9-.4.9-.9s-.4-.9-.9-.9h-9.7c-.5,0-.9.4-.9.9s.4.9.9.9Z"/>
      <g class="st3">
        <text class="st4" transform="translate(252.7 1949)"><tspan x="0" y="0">Design Variations</tspan></text>
      </g>
      <g class="st3">
        <text class="st5" transform="translate(252.7 1967)"><tspan x="0" y="0">Symbols are supported in up to nine weights and three scales.</tspan></text>
      </g>
      <g class="st3">
        <text class="st5" transform="translate(252.7 1985)"><tspan x="0" y="0">For optimal layout with text and other symbols, vertically align</tspan></text>
      </g>
      <g class="st3">
        <text class="st5" transform="translate(252.7 2003)"><tspan x="0" y="0">symbols with the adjacent text.</tspan></text>
      </g>
      <line class="st0" x1="765.7" y1="1915" x2="765.7" y2="1929"/>
      <path d="M769,1929.2c.5,0,.8-.2,1-.7l4.1-11.5h0l4.1,11.5c.2.5.4.7.9.7s.8-.3.8-.8,0-.3,0-.5l-4.6-12.2c-.2-.6-.6-.9-1.3-.9s-1,.3-1.2.9l-4.6,12.2c0,.2,0,.4,0,.5,0,.5.3.8.8.8h.2ZM771,1925h6.1c.4,0,.7-.3.7-.7s-.3-.7-.7-.7h-6.1c-.4,0-.7.3-.7.7s.3.7.7.7Z"/>
      <line class="st0" x1="782.5" y1="1915" x2="782.5" y2="1929"/>
      <g class="st3">
        <text class="st4" transform="translate(765.7 1949)"><tspan x="0" y="0">Margins</tspan></text>
      </g>
      <g class="st3">
        <text class="st5" transform="translate(765.7 1967)"><tspan x="0" y="0">Leading and trailing margins on the left and right side of each symbol</tspan></text>
      </g>
      <g class="st3">
        <text class="st5" transform="translate(765.7 1985)"><tspan x="0" y="0">can be adjusted by modifying the x-location of the margin guidelines.</tspan></text>
      </g>
      <g class="st3">
        <text class="st5" transform="translate(765.7 2003)"><tspan x="0" y="0">Modifications are automatically applied proportionally to all</tspan></text>
      </g>
      <g class="st3">
        <text class="st5" transform="translate(765.7 2021)"><tspan x="0" y="0">scales and weights.</tspan></text>
      </g>
      <path d="M1281.5,1931.7l1.6,1.6c.9.9,1.9.8,2.8-.2l12.1-13.6-1-1-12.1,13.5c-.4.4-.7.5-1.2,0l-1-1c-.5-.5-.4-.8,0-1.2l13.5-12.4-1-1-13.6,12.5c-1,.9-1.1,1.9-.2,2.8h0ZM1290.5,1912.2c-.4.4-.4,1-.2,1.4.2.4.7.6,1.3.4,1.2-.3,2.5-.5,3.8.2l-.5,1.4c-.3.8,0,1.4.3,1.9l2.1,2.1c.5.5.9.5,1.4.4h.9c0,0,.5.4.5.4v.4c0,.5,0,.9.5,1.3l.7.7c.5.5,1.1.5,1.6,0l2.6-2.6c.5-.5.4-1.1,0-1.5l-.7-.7c-.4-.4-.8-.6-1.3-.6h-.5l-.5-.4.2-.9c0-.5,0-1-.6-1.5l-2.3-2.2c-2.6-2.6-7.1-2.2-9.3,0v-.2ZM1291.9,1912.6c1.8-1.3,5.2-1.1,6.7.4l2.5,2.4c.2.2.2.4.2.7l-.3,1.3,1.3,1.3h.9c.2,0,.3,0,.5,0l.5.5-2.2,2.2-.5-.5q-.2-.2-.2-.5v-.9l-1.3-1.3-1.4.2c-.3,0-.4,0-.6-.2l-1.8-1.8c-.2-.2-.2-.3,0-.7l.9-2.3c-1.2-1.3-3.4-1.5-5.1-.9,0,0-.2,0,0-.2h0v.2Z"/>
      <g class="st3">
        <text class="st4" transform="translate(1278.7 1949)"><tspan x="0" y="0">Exporting</tspan></text>
      </g>
      <g class="st3">
        <text class="st5" transform="translate(1278.7 1967)"><tspan x="0" y="0">Symbols should be outlined when exporting to ensure the</tspan></text>
      </g>
      <g class="st3">
        <text class="st5" transform="translate(1278.7 1985)"><tspan x="0" y="0">design is preserved when submitting to Xcode.</tspan></text>
      </g>
      <g id="template-version" class="st3">
        <text class="st5" transform="translate(2942.1 1929)"><tspan x="0" y="0">Template v.7.0</tspan></text>
      </g>
      <g class="st3">
        <text class="st5" transform="translate(2855.1 1947)"><tspan x="0" y="0">Requires Xcode 17 or greater</tspan></text>
      </g>
      <g id="descriptive-name" class="st3">
        <text class="st5" transform="translate(2788 1965)"><tspan x="0" y="0">Generated from custom.rectangle.portrait</tspan></text>
      </g>
      <g class="st3">
        <text class="st5" transform="translate(2891.3 1983)"><tspan x="0" y="0">Typeset at 100.0 points</tspan></text>
      </g>
      <g class="st3">
        <text class="st5" transform="translate(252.7 722)"><tspan x="0" y="0">Small</tspan></text>
      </g>
      <g class="st3">
        <text class="st5" transform="translate(252.7 1152)"><tspan x="0" y="0">Medium</tspan></text>
      </g>
      <g class="st3">
        <text class="st5" transform="translate(252.7 1582)"><tspan x="0" y="0">Large</tspan></text>
      </g>
    </g>
    <g id="Guides">
      <g id="H-reference">
        <path class="st7" d="M340,696h2.6l25.7-67.1h.7v-3.3h-1.9l-27.1,70.5h0ZM350.7,671.5h35.3l-.8-2.2h-33.8l-.8,2.2h0ZM394.1,696h2.6l-27.1-70.5h-1.2v3.3l25.7,67.1h0Z"/>
      </g>
      <line id="Baseline-S" class="st2" x1="263" y1="696" x2="3036" y2="696"/>
      <line id="Capline-S" class="st2" x1="263" y1="625.5" x2="3036" y2="625.5"/>
      <g id="H-reference1">
        <path class="st7" d="M340,1126h2.6l25.7-67.1h.7v-3.3h-1.9l-27.1,70.5h0ZM350.7,1101.5h35.3l-.8-2.2h-33.8l-.8,2.2h0ZM394.1,1126h2.6l-27.1-70.5h-1.2v3.3l25.7,67.1h0Z"/>
      </g>
      <line id="Baseline-M" class="st2" x1="263" y1="1126" x2="3036" y2="1126"/>
      <line id="Capline-M" class="st2" x1="263" y1="1055.5" x2="3036" y2="1055.5"/>
      <g id="H-reference2">
        <path class="st7" d="M340,1556h2.6l25.7-67.1h.7v-3.3h-1.9l-27.1,70.5h0ZM350.7,1531.5h35.3l-.8-2.2h-33.8l-.8,2.2h0ZM394.1,1556h2.6l-27.1-70.5h-1.2v3.3l25.7,67.1h0Z"/>
      </g>
      <line id="Baseline-L" class="st2" x1="263" y1="1556" x2="3036" y2="1556"/>
      <line id="Capline-L" class="st2" x1="263" y1="1485.5" x2="3036" y2="1485.5"/>
      <line id="right-margin-Regular-M" class="st0" x1="1507.4" y1="1030.8" x2="1507.4" y2="1150.1"/>
      <line id="left-margin-Regular-M" class="st0" x1="1392.3" y1="1030.8" x2="1392.3" y2="1150.1"/>
    </g>
    <g id="Symbols">
      <g id="Regular-M">
        <path class="st1" d="M1473,1153.3h-46.2c-6.2,0-10.3-4.2-10.3-10.3v-7.9c0-6.2,4.1-10.3,10.3-10.3h46.2c6.3,0,10.4,4,10.4,10.3v7.9c0,6.2-4.2,10.3-10.4,10.3ZM1426.8,1146.8h46.2c2.6,0,3.9-1.2,3.9-3.8v-7.9c0-2.6-1.2-3.8-3.9-3.8h-46.2c-2.5,0-3.8,1.2-3.8,3.8v7.9c0,2.6,1.3,3.8,3.8,3.8Z"/>
        <path class="st1" d="M1473.2,1131.3h-46.7c-9.5,0-17.3-7.8-17.3-17.3v-38.8c0-6.3,4.1-10.3,10.4-10.3h10.6v35.2c0,4.5,3.7,8.2,8.3,8.2h22.8c4.6,0,8.3-3.7,8.3-8.2v-35.2h10.6c6.3,0,10.4,4,10.4,10.3v38.8c0,9.5-7.8,17.3-17.3,17.3ZM1419.7,1071.4c-2.7,0-3.9,1.2-3.9,3.8v38.8c0,5.9,4.8,10.8,10.8,10.8h46.7c5.9,0,10.8-4.8,10.8-10.8v-38.8c0-2.6-1.2-3.8-3.9-3.8h-4.1v28.7c0,8.1-6.6,14.7-14.8,14.7h-22.8c-8.1,0-14.8-6.6-14.8-14.7v-28.7h-4.1Z"/>
        <path class="st1" d="M1458.4,1102.6h-17.1c-10,0-17.5-10.6-17.5-20v-17.1c0-4.5.9-8.9,2.5-12.9l10.5-26h26.2l10.5,26.1c1.7,4,2.5,8.3,2.5,12.8v17.1c0,9.4-7.5,20-17.5,20ZM1441.2,1033l-8.8,22c-1.4,3.3-2,6.8-2,10.4v17.1c0,6.1,4.9,13.5,11,13.5h17.1c6.1,0,11-7.4,11-13.5v-17.1c0-3.7-.7-7.2-2-10.4l-8.9-22.1h-17.4Z"/>
      </g>
    </g>
  </g>
</svg>