<?xml version="1.0" encoding="UTF-8"?>
<!--Generator: Apple Native CoreSVG 341-->
<!DOCTYPE svg
PUBLIC "-//W3C//DTD SVG 1.1//EN"
       "http://www.w3.org/Graphics/SVG/1.1/DTD/svg11.dtd">
<svg version="1.1" xmlns="http://www.w3.org/2000/svg" xmlns:xlink="http://www.w3.org/1999/xlink" viewBox="0 0 3300 2200">
 <!--glyph: "10322F", point size: 100.0, font version: "21.1d1e1", template writer version: "138.0.0"-->
 <style>.defaults {-sfsymbols-variable-value-mode:color;-sfsymbols-draw-reverses-motion-groups:false}

.monochrome-0 {-sfsymbols-motion-group:1;-sfsymbols-layer-tags:graph.3d}
.monochrome-1 {opacity:0.0;-sfsymbols-clear-behind:true;-sfsymbols-motion-group:0;-sfsymbols-layer-tags:graph.3d}
.monochrome-2 {-sfsymbols-motion-group:0;-sfsymbols-layer-tags:graph.3d}

.multicolor-0:tintColor {-sfsymbols-motion-group:1;-sfsymbols-layer-tags:graph.3d}
.multicolor-1:tintColor {opacity:0.0;-sfsymbols-clear-behind:true;-sfsymbols-motion-group:0;-sfsymbols-layer-tags:graph.3d}
.multicolor-2:tintColor {-sfsymbols-motion-group:0;-sfsymbols-layer-tags:graph.3d}

.hierarchical-0:secondary {-sfsymbols-motion-group:1;-sfsymbols-layer-tags:graph.3d}
.hierarchical-1:primary {opacity:0.0;-sfsymbols-clear-behind:true;-sfsymbols-motion-group:0;-sfsymbols-layer-tags:graph.3d}
.hierarchical-2:primary {-sfsymbols-motion-group:0;-sfsymbols-layer-tags:graph.3d}

.SFSymbolsPreviewWireframe {fill:none;opacity:1.0;stroke:black;stroke-width:0.5}
</style>
 <g id="Notes">
  <rect height="2200" id="artboard" style="fill:white;opacity:1" width="3300" x="0" y="0"/>
  <line style="fill:none;stroke:black;opacity:1;stroke-width:0.5;" x1="263" x2="3036" y1="292" y2="292"/>
  <text style="stroke:none;fill:black;font-family:sans-serif;font-size:13;font-weight:bold;" transform="matrix(1 0 0 1 263 322)">Weight/Scale Variations</text>
  <text style="stroke:none;fill:black;font-family:sans-serif;font-size:13;text-anchor:middle;" transform="matrix(1 0 0 1 559.711 322)">Ultralight</text>
  <text style="stroke:none;fill:black;font-family:sans-serif;font-size:13;text-anchor:middle;" transform="matrix(1 0 0 1 856.422 322)">Thin</text>
  <text style="stroke:none;fill:black;font-family:sans-serif;font-size:13;text-anchor:middle;" transform="matrix(1 0 0 1 1153.13 322)">Light</text>
  <text style="stroke:none;fill:black;font-family:sans-serif;font-size:13;text-anchor:middle;" transform="matrix(1 0 0 1 1449.84 322)">Regular</text>
  <text style="stroke:none;fill:black;font-family:sans-serif;font-size:13;text-anchor:middle;" transform="matrix(1 0 0 1 1746.56 322)">Medium</text>
  <text style="stroke:none;fill:black;font-family:sans-serif;font-size:13;text-anchor:middle;" transform="matrix(1 0 0 1 2043.27 322)">Semibold</text>
  <text style="stroke:none;fill:black;font-family:sans-serif;font-size:13;text-anchor:middle;" transform="matrix(1 0 0 1 2339.98 322)">Bold</text>
  <text style="stroke:none;fill:black;font-family:sans-serif;font-size:13;text-anchor:middle;" transform="matrix(1 0 0 1 2636.69 322)">Heavy</text>
  <text style="stroke:none;fill:black;font-family:sans-serif;font-size:13;text-anchor:middle;" transform="matrix(1 0 0 1 2933.4 322)">Black</text>
  <line style="fill:none;stroke:black;opacity:1;stroke-width:0.5;" x1="263" x2="3036" y1="1903" y2="1903"/>
  <g transform="matrix(0.2 0 0 0.2 263 1933)">
   <path d="m46.2402 4.15039c21.7773 0 39.4531-17.627 39.4531-39.4043s-17.6758-39.4043-39.4531-39.4043c-21.7285 0-39.4043 17.627-39.4043 39.4043s17.6758 39.4043 39.4043 39.4043Zm0-7.42188c-17.6758 0-31.9336-14.3066-31.9336-31.9824s14.2578-31.9824 31.9336-31.9824 31.9824 14.3066 31.9824 31.9824-14.3066 31.9824-31.9824 31.9824Zm3.61328-17.7734v-28.4668c0-2.24609-1.46484-3.75977-3.71094-3.75977-2.14844 0-3.61328 1.51367-3.61328 3.75977v28.4668c0 2.19727 1.46484 3.71094 3.61328 3.71094 2.24609 0 3.71094-1.51367 3.71094-3.71094Zm-17.8223-10.5957h28.418c2.19727 0 3.71094-1.46484 3.71094-3.61328 0-2.19727-1.51367-3.71094-3.71094-3.71094h-28.418c-2.24609 0-3.75977 1.51367-3.75977 3.71094 0 2.14844 1.51367 3.61328 3.75977 3.61328Z"/>
  </g>
  <g transform="matrix(0.2 0 0 0.2 281.506 1933)">
   <path d="m58.5449 14.5508c27.4902 0 49.8047-22.3145 49.8047-49.8047s-22.3145-49.8047-49.8047-49.8047-49.8047 22.3145-49.8047 49.8047 22.3145 49.8047 49.8047 49.8047Zm0-8.30078c-22.9492 0-41.5039-18.5547-41.5039-41.5039s18.5547-41.5039 41.5039-41.5039 41.5039 18.5547 41.5039 41.5039-18.5547 41.5039-41.5039 41.5039Zm4.05273-23.0957v-36.9141c0-2.49023-1.70898-4.19922-4.15039-4.19922-2.39258 0-4.05273 1.70898-4.05273 4.19922v36.9141c0 2.44141 1.66016 4.15039 4.05273 4.15039 2.44141 0 4.15039-1.66016 4.15039-4.15039Zm-22.5586-14.4043h36.9629c2.44141 0 4.15039-1.61133 4.15039-4.00391 0-2.44141-1.70898-4.15039-4.15039-4.15039h-36.9629c-2.49023 0-4.15039 1.70898-4.15039 4.15039 0 2.39258 1.66016 4.00391 4.15039 4.00391Z"/>
  </g>
  <g transform="matrix(0.2 0 0 0.2 304.924 1933)">
   <path d="m74.8535 28.3203c35.1074 0 63.623-28.4668 63.623-63.5742s-28.5156-63.623-63.623-63.623-63.5742 28.5156-63.5742 63.623 28.4668 63.5742 63.5742 63.5742Zm0-9.08203c-30.127 0-54.4922-24.3652-54.4922-54.4922s24.3652-54.4922 54.4922-54.4922 54.4922 24.3652 54.4922 54.4922-24.3652 54.4922-54.4922 54.4922Zm4.44336-30.3223v-48.4863c0-2.73438-1.85547-4.63867-4.54102-4.63867-2.58789 0-4.44336 1.9043-4.44336 4.63867v48.4863c0 2.68555 1.85547 4.58984 4.44336 4.58984 2.68555 0 4.54102-1.85547 4.54102-4.58984Zm-28.7109-19.7754h48.4863c2.68555 0 4.58984-1.80664 4.58984-4.39453 0-2.73438-1.85547-4.58984-4.58984-4.58984h-48.4863c-2.73438 0-4.58984 1.85547-4.58984 4.58984 0 2.58789 1.85547 4.39453 4.58984 4.39453Z"/>
  </g>
  <text style="stroke:none;fill:black;font-family:sans-serif;font-size:13;font-weight:bold;" transform="matrix(1 0 0 1 263 1953)">Design Variations</text>
  <text style="stroke:none;fill:black;font-family:sans-serif;font-size:13;" transform="matrix(1 0 0 1 263 1971)">Symbols are supported in up to nine weights and three scales.</text>
  <text style="stroke:none;fill:black;font-family:sans-serif;font-size:13;" transform="matrix(1 0 0 1 263 1989)">For optimal layout with text and other symbols, vertically align</text>
  <text style="stroke:none;fill:black;font-family:sans-serif;font-size:13;" transform="matrix(1 0 0 1 263 2007)">symbols with the adjacent text.</text>
  <line style="fill:none;stroke:#00AEEF;stroke-width:0.5;opacity:1.0;" x1="776" x2="776" y1="1919" y2="1933"/>
  <g transform="matrix(0.2 0 0 0.2 776 1933)">
   <path d="m16.5527 0.78125c2.58789 0 3.85742-0.976562 4.78516-3.71094l20.5566-57.5195h0.244141l20.6055 57.5195c0.927734 2.73438 2.19727 3.71094 4.73633 3.71094 2.58789 0 4.24805-1.5625 4.24805-4.00391 0-0.830078-0.146484-1.61133-0.537109-2.63672l-22.9004-60.9863c-1.12305-2.97852-3.125-4.49219-6.25-4.49219-3.02734 0-5.07812 1.46484-6.15234 4.44336l-22.9004 61.084c-0.390625 1.02539-0.537109 1.80664-0.537109 2.63672 0 2.44141 1.5625 3.95508 4.10156 3.95508Zm10.2051-20.9473h30.6641c2.00195 0 3.66211-1.66016 3.66211-3.66211 0-2.05078-1.66016-3.66211-3.66211-3.66211h-30.6641c-2.00195 0-3.66211 1.61133-3.66211 3.66211 0 2.00195 1.66016 3.66211 3.66211 3.66211Z"/>
  </g>
  <line style="fill:none;stroke:#00AEEF;stroke-width:0.5;opacity:1.0;" x1="792.836" x2="792.836" y1="1919" y2="1933"/>
  <text style="stroke:none;fill:black;font-family:sans-serif;font-size:13;font-weight:bold;" transform="matrix(1 0 0 1 776 1953)">Margins</text>
  <text style="stroke:none;fill:black;font-family:sans-serif;font-size:13;" transform="matrix(1 0 0 1 776 1971)">Leading and trailing margins on the left and right side of each symbol</text>
  <text style="stroke:none;fill:black;font-family:sans-serif;font-size:13;" transform="matrix(1 0 0 1 776 1989)">can be adjusted by modifying the x-location of the margin guidelines.</text>
  <text style="stroke:none;fill:black;font-family:sans-serif;font-size:13;" transform="matrix(1 0 0 1 776 2007)">Modifications are automatically applied proportionally to all</text>
  <text style="stroke:none;fill:black;font-family:sans-serif;font-size:13;" transform="matrix(1 0 0 1 776 2025)">scales and weights.</text>
  <g transform="matrix(0.2 0 0 0.2 1289 1933)">
   <path d="m14.209 13.1348 7.86133 7.86133c4.29688 4.39453 9.32617 4.10156 13.8672-1.02539l60.6934-68.2129-4.88281-4.88281-60.2539 67.6758c-1.80664 1.95312-3.4668 2.44141-5.81055 0.0976562l-5.17578-5.12695c-2.29492-2.29492-1.80664-3.95508 0.195312-5.81055l67.4805-62.1582-4.88281-4.83398-68.0664 62.5977c-4.98047 4.58984-5.32227 9.47266-1.02539 13.8184Zm44.873-97.4609c-2.05078 2.00195-2.24609 4.88281-1.07422 6.78711 1.12305 1.80664 3.4668 3.02734 6.5918 2.24609 5.85938-1.66016 12.5977-2.39258 18.8965 0.927734l-2.68555 7.12891c-1.61133 4.00391-0.732422 6.88477 1.70898 9.42383l10.2539 10.3027c2.34375 2.39258 4.54102 2.44141 7.08008 1.95312l4.44336-0.732422 2.58789 2.53906-0.195312 2.24609c-0.0976562 2.29492 0.537109 4.29688 2.7832 6.49414l3.36914 3.32031c2.29492 2.29492 5.51758 2.49023 7.8125 0.195312l12.9883-13.0371c2.29492-2.34375 2.14844-5.37109-0.195312-7.66602l-3.41797-3.41797c-2.19727-2.19727-4.05273-3.02734-6.34766-2.88086l-2.34375 0.244141-2.44141-2.44141 1.02539-4.6875c0.634766-2.73438-0.244141-4.98047-2.88086-7.61719l-11.2793-11.1816c-12.9395-12.8418-35.5957-11.0352-46.6797-0.146484Zm7.08008 2.05078c8.78906-6.39648 25.9766-5.66406 33.6914 1.95312l12.3047 12.207c1.02539 1.02539 1.2207 1.80664 0.927734 3.32031l-1.46484 6.64062 6.73828 6.68945 4.39453-0.244141c1.12305-0.0488281 1.51367 0.0488281 2.34375 0.878906l2.53906 2.49023-10.8398 10.8398-2.49023-2.49023c-0.830078-0.878906-0.976562-1.2207-0.927734-2.39258l0.292969-4.3457-6.68945-6.73828-6.83594 1.17188c-1.41602 0.292969-2.05078 0.195312-3.17383-0.878906l-8.93555-8.88672c-1.07422-1.02539-1.17188-1.70898-0.488281-3.36914l4.58984-11.4746c-6.10352-6.34766-17.041-7.51953-25.5859-4.58984-0.683594 0.244141-0.927734-0.390625-0.390625-0.78125Z"/>
  </g>
  <text style="stroke:none;fill:black;font-family:sans-serif;font-size:13;font-weight:bold;" transform="matrix(1 0 0 1 1289 1953)">Exporting</text>
  <text style="stroke:none;fill:black;font-family:sans-serif;font-size:13;" transform="matrix(1 0 0 1 1289 1971)">Symbols should be outlined when exporting to ensure the</text>
  <text style="stroke:none;fill:black;font-family:sans-serif;font-size:13;" transform="matrix(1 0 0 1 1289 1989)">design is preserved when submitting to Xcode.</text>
  <text id="template-version" style="stroke:none;fill:black;font-family:sans-serif;font-size:13;text-anchor:end;" transform="matrix(1 0 0 1 3036 1933)">Template v.7.0</text>
  <text style="stroke:none;fill:black;font-family:sans-serif;font-size:13;text-anchor:end;" transform="matrix(1 0 0 1 3036 1951)">Requires Xcode 26 or greater</text>
  <text id="descriptive-name" style="stroke:none;fill:black;font-family:sans-serif;font-size:13;text-anchor:end;" transform="matrix(1 0 0 1 3036 1969)">Generated from graph.3d</text>
  <text style="stroke:none;fill:black;font-family:sans-serif;font-size:13;text-anchor:end;" transform="matrix(1 0 0 1 3036 1987)">Typeset at 100.0 points</text>
  <text style="stroke:none;fill:black;font-family:sans-serif;font-size:13;" transform="matrix(1 0 0 1 263 726)">Small</text>
  <text style="stroke:none;fill:black;font-family:sans-serif;font-size:13;" transform="matrix(1 0 0 1 263 1156)">Medium</text>
  <text style="stroke:none;fill:black;font-family:sans-serif;font-size:13;" transform="matrix(1 0 0 1 263 1586)">Large</text>
 </g>
 <g id="Guides">
  <g id="H-reference" style="fill:#27AAE1;stroke:none;" transform="matrix(1 0 0 1 339 696)">
   <path d="M0.993654 0L3.63775 0L29.3281-67.1323L30.0303-67.1323L30.0303-70.459L28.1226-70.459ZM11.6885-24.4799L46.9815-24.4799L46.2315-26.7285L12.4385-26.7285ZM55.1196 0L57.7637 0L30.6382-70.459L29.4326-70.459L29.4326-67.1323Z"/>
  </g>
  <line id="Baseline-S" style="fill:none;stroke:#27AAE1;opacity:1;stroke-width:0.5;" x1="263" x2="3036" y1="696" y2="696"/>
  <line id="Capline-S" style="fill:none;stroke:#27AAE1;opacity:1;stroke-width:0.5;" x1="263" x2="3036" y1="625.541" y2="625.541"/>
  <g id="H-reference" style="fill:#27AAE1;stroke:none;" transform="matrix(1 0 0 1 339 1126)">
   <path d="M0.993654 0L3.63775 0L29.3281-67.1323L30.0303-67.1323L30.0303-70.459L28.1226-70.459ZM11.6885-24.4799L46.9815-24.4799L46.2315-26.7285L12.4385-26.7285ZM55.1196 0L57.7637 0L30.6382-70.459L29.4326-70.459L29.4326-67.1323Z"/>
  </g>
  <line id="Baseline-M" style="fill:none;stroke:#27AAE1;opacity:1;stroke-width:0.5;" x1="263" x2="3036" y1="1126" y2="1126"/>
  <line id="Capline-M" style="fill:none;stroke:#27AAE1;opacity:1;stroke-width:0.5;" x1="263" x2="3036" y1="1055.54" y2="1055.54"/>
  <g id="H-reference" style="fill:#27AAE1;stroke:none;" transform="matrix(1 0 0 1 339 1556)">
   <path d="M0.993654 0L3.63775 0L29.3281-67.1323L30.0303-67.1323L30.0303-70.459L28.1226-70.459ZM11.6885-24.4799L46.9815-24.4799L46.2315-26.7285L12.4385-26.7285ZM55.1196 0L57.7637 0L30.6382-70.459L29.4326-70.459L29.4326-67.1323Z"/>
  </g>
  <line id="Baseline-L" style="fill:none;stroke:#27AAE1;opacity:1;stroke-width:0.5;" x1="263" x2="3036" y1="1556" y2="1556"/>
  <line id="Capline-L" style="fill:none;stroke:#27AAE1;opacity:1;stroke-width:0.5;" x1="263" x2="3036" y1="1485.54" y2="1485.54"/>
  <line id="right-margin-Black-S" style="fill:none;stroke:#00AEEF;stroke-width:0.5;opacity:1.0;" x1="2985.01" x2="2985.01" y1="600.785" y2="720.121"/>
  <line id="left-margin-Black-S" style="fill:none;stroke:#00AEEF;stroke-width:0.5;opacity:1.0;" x1="2881.79" x2="2881.79" y1="600.785" y2="720.121"/>
  <line id="right-margin-Regular-S" style="fill:none;stroke:#00AEEF;stroke-width:0.5;opacity:1.0;" x1="1499.62" x2="1499.62" y1="600.785" y2="720.121"/>
  <line id="left-margin-Regular-S" style="fill:none;stroke:#00AEEF;stroke-width:0.5;opacity:1.0;" x1="1400.06" x2="1400.06" y1="600.785" y2="720.121"/>
  <line id="right-margin-Ultralight-S" style="fill:none;stroke:#00AEEF;stroke-width:0.5;opacity:1.0;" x1="606.313" x2="606.313" y1="600.785" y2="720.121"/>
  <line id="left-margin-Ultralight-S" style="fill:none;stroke:#00AEEF;stroke-width:0.5;opacity:1.0;" x1="513.11" x2="513.11" y1="600.785" y2="720.121"/>
 </g>
 <g id="Symbols">
  <g id="Black-S" transform="matrix(1 0 0 1 2881.79 696)">
   <path class="monochrome-0 multicolor-0:tintColor hierarchical-0:secondary SFSymbolsPreviewWireframe" d="M51.6113-52.2949C54.4434-52.2949 56.7383-54.5898 56.7383-57.4219C56.7383-60.2539 54.4434-62.5488 51.6113-62.5488C48.7793-62.5488 46.4844-60.2539 46.4844-57.4219C46.4844-54.5898 48.7793-52.2949 51.6113-52.2949ZM51.6113-63.3789C54.4434-63.3789 56.7383-65.6738 56.7383-68.5059C56.7383-71.3379 54.4434-73.6328 51.6113-73.6328C48.7793-73.6328 46.4844-71.3379 46.4844-68.5059C46.4844-65.6738 48.7793-63.3789 51.6113-63.3789ZM51.6113-30.127C54.4434-30.127 56.7383-32.4219 56.7383-35.2539C56.7383-38.0859 54.4434-40.3809 51.6113-40.3809C48.7793-40.3809 46.4844-38.0859 46.4844-35.2539C46.4844-32.4219 48.7793-30.127 51.6113-30.127ZM51.6113-41.2109C54.4434-41.2109 56.7383-43.5059 56.7383-46.3379C56.7383-49.1699 54.4434-51.4648 51.6113-51.4648C48.7793-51.4648 46.4844-49.1699 46.4844-46.3379C46.4844-43.5059 48.7793-41.2109 51.6113-41.2109ZM14.8926 1.07422C17.7246 1.07422 20.0195-1.2207 20.0195-4.05273C20.0195-6.88477 17.7246-9.17969 14.8926-9.17969C12.0605-9.17969 9.76562-6.88477 9.76562-4.05273C9.76562-1.2207 12.0605 1.07422 14.8926 1.07422ZM24.5117-4.49219C27.3438-4.49219 29.6387-6.78711 29.6387-9.61914C29.6387-12.4512 27.3438-14.7461 24.5117-14.7461C21.6797-14.7461 19.3848-12.4512 19.3848-9.61914C19.3848-6.78711 21.6797-4.49219 24.5117-4.49219ZM34.082-10.0098C36.9141-10.0098 39.209-12.3047 39.209-15.1367C39.209-17.9688 36.9141-20.2637 34.082-20.2637C31.25-20.2637 28.9551-17.9688 28.9551-15.1367C28.9551-12.3047 31.25-10.0098 34.082-10.0098ZM43.7012-15.5762C46.5332-15.5762 48.8281-17.8711 48.8281-20.7031C48.8281-23.5352 46.5332-25.8301 43.7012-25.8301C40.8691-25.8301 38.5742-23.5352 38.5742-20.7031C38.5742-17.8711 40.8691-15.5762 43.7012-15.5762ZM88.3301 1.07422C91.1621 1.07422 93.457-1.2207 93.457-4.05273C93.457-6.88477 91.1621-9.17969 88.3301-9.17969C85.498-9.17969 83.2031-6.88477 83.2031-4.05273C83.2031-1.2207 85.498 1.07422 88.3301 1.07422ZM78.7109-4.49219C81.543-4.49219 83.8379-6.78711 83.8379-9.61914C83.8379-12.4512 81.543-14.7461 78.7109-14.7461C75.8789-14.7461 73.584-12.4512 73.584-9.61914C73.584-6.78711 75.8789-4.49219 78.7109-4.49219ZM69.1406-10.0098C71.9727-10.0098 74.2676-12.3047 74.2676-15.1367C74.2676-17.9688 71.9727-20.2637 69.1406-20.2637C66.3086-20.2637 64.0137-17.9688 64.0137-15.1367C64.0137-12.3047 66.3086-10.0098 69.1406-10.0098ZM59.5215-15.5762C62.3535-15.5762 64.6484-17.8711 64.6484-20.7031C64.6484-23.5352 62.3535-25.8301 59.5215-25.8301C56.6895-25.8301 54.3945-23.5352 54.3945-20.7031C54.3945-17.8711 56.6895-15.5762 59.5215-15.5762Z"/>
   <path class="monochrome-1 multicolor-1:tintColor hierarchical-1:primary SFSymbolsPreviewWireframe" d="M42.7246 0.683594C48.584 4.10156 54.7363 3.90625 60.3516 0.732422L87.5488-14.9902C97.168-20.6055 96.9727-33.3984 87.5488-38.8672L60.3516-54.541C54.7363-57.7148 48.584-57.9102 42.7246-54.4922L15.625-38.8184C6.05469-33.252 5.95703-20.6543 15.625-14.9902Z"/>
   <path class="monochrome-2 multicolor-2:tintColor hierarchical-2:primary SFSymbolsPreviewWireframe" d="M45.8984-4.78516C49.7559-2.53906 53.418-2.63672 57.2266-4.78516L84.375-20.459C89.7949-23.6328 89.5996-30.3223 84.375-33.3496L57.2266-49.0234C53.418-51.1719 49.7559-51.2695 45.8984-49.0234L18.7988-33.3496C13.4277-30.2246 13.3301-23.6816 18.7988-20.459ZM50.6836-13.3301L27.832-26.5625C27.4902-26.7578 27.4902-27.0508 27.832-27.2461L50.6836-40.4785C51.3672-40.8691 51.7578-40.8691 52.4414-40.4785L75.3906-27.2461C75.7324-27.0508 75.7324-26.7578 75.3906-26.5625L52.4414-13.3301C51.7578-12.9395 51.3672-12.9395 50.6836-13.3301ZM38.6719-14.4043L73.3398-35.5469L66.2598-41.8945L30.8105-20.3125ZM65.918-13.8672L74.3652-19.6777L37.9883-40.7715L31.1523-34.0332Z"/>
  </g>
  <g id="Regular-S" transform="matrix(1 0 0 1 1400.06 696)">
   <path class="monochrome-0 multicolor-0:tintColor hierarchical-0:secondary SFSymbolsPreviewWireframe" d="M49.8047-53.125C51.7578-53.125 53.3691-54.7363 53.3691-56.6895C53.3691-58.6426 51.7578-60.3027 49.8047-60.3027C47.8516-60.3027 46.2402-58.6426 46.2402-56.6895C46.2402-54.7363 47.8516-53.125 49.8047-53.125ZM49.8047-63.8672C51.7578-63.8672 53.3691-65.4785 53.3691-67.4316C53.3691-69.3848 51.7578-70.9961 49.8047-70.9961C47.8516-70.9961 46.2402-69.3848 46.2402-67.4316C46.2402-65.4785 47.8516-63.8672 49.8047-63.8672ZM49.8047-31.6895C51.7578-31.6895 53.3691-33.3008 53.3691-35.2539C53.3691-37.207 51.7578-38.8184 49.8047-38.8184C47.8516-38.8184 46.2402-37.207 46.2402-35.2539C46.2402-33.3008 47.8516-31.6895 49.8047-31.6895ZM49.8047-42.4316C51.7578-42.4316 53.3691-44.043 53.3691-45.9961C53.3691-47.9492 51.7578-49.5605 49.8047-49.5605C47.8516-49.5605 46.2402-47.9492 46.2402-45.9961C46.2402-44.043 47.8516-42.4316 49.8047-42.4316ZM13.2812-0.292969C15.2344-0.292969 16.8457-1.9043 16.8457-3.85742C16.8457-5.81055 15.2344-7.42188 13.2812-7.42188C11.3281-7.42188 9.7168-5.81055 9.7168-3.85742C9.7168-1.9043 11.3281-0.292969 13.2812-0.292969ZM22.6074-5.66406C24.5605-5.66406 26.1719-7.27539 26.1719-9.22852C26.1719-11.1816 24.5605-12.793 22.6074-12.793C20.6543-12.793 18.9941-11.1816 18.9941-9.22852C18.9941-7.27539 20.6543-5.66406 22.6074-5.66406ZM31.8359-10.9863C33.7891-10.9863 35.4004-12.6465 35.4004-14.5996C35.4004-16.5527 33.7891-18.1641 31.8359-18.1641C29.8828-18.1641 28.2715-16.5527 28.2715-14.5996C28.2715-12.6465 29.8828-10.9863 31.8359-10.9863ZM41.1621-16.3574C43.1152-16.3574 44.7266-17.9688 44.7266-19.9219C44.7266-21.875 43.1152-23.5352 41.1621-23.5352C39.209-23.5352 37.5977-21.875 37.5977-19.9219C37.5977-17.9688 39.209-16.3574 41.1621-16.3574ZM86.3281-0.292969C88.2812-0.292969 89.8926-1.9043 89.8926-3.85742C89.8926-5.81055 88.2812-7.42188 86.3281-7.42188C84.375-7.42188 82.7637-5.81055 82.7637-3.85742C82.7637-1.9043 84.375-0.292969 86.3281-0.292969ZM77.002-5.66406C78.9551-5.66406 80.5664-7.27539 80.5664-9.22852C80.5664-11.1816 78.9551-12.793 77.002-12.793C75.0488-12.793 73.4375-11.1816 73.4375-9.22852C73.4375-7.27539 75.0488-5.66406 77.002-5.66406ZM67.7246-10.9863C69.6777-10.9863 71.2891-12.6465 71.2891-14.5996C71.2891-16.5527 69.6777-18.1641 67.7246-18.1641C65.7715-18.1641 64.1602-16.5527 64.1602-14.5996C64.1602-12.6465 65.7715-10.9863 67.7246-10.9863ZM58.3984-16.3574C60.3516-16.3574 61.9629-17.9688 61.9629-19.9219C61.9629-21.875 60.3516-23.5352 58.3984-23.5352C56.4453-23.5352 54.834-21.875 54.834-19.9219C54.834-17.9688 56.4453-16.3574 58.3984-16.3574Z"/>
   <path class="monochrome-1 multicolor-1:tintColor hierarchical-1:primary SFSymbolsPreviewWireframe" d="M42.334-0.634766C46.7285 1.9043 51.6113 2.53906 57.2266-0.634766L84.5215-16.3574C92.3828-20.9473 92.0898-31.0547 84.5215-35.498L57.2266-51.2207C51.6113-54.3945 46.7285-53.7598 42.334-51.2207L15.1367-35.498C7.37305-30.957 7.27539-20.9961 15.1367-16.3574Z"/>
   <path class="monochrome-2 multicolor-2:tintColor hierarchical-2:primary SFSymbolsPreviewWireframe" d="M45.2148-5.56641C48.3887-3.71094 51.1719-3.75977 54.3945-5.56641L81.6406-21.3379C85.6445-23.6816 85.498-28.3203 81.6406-30.5176L54.3945-46.2891C51.1719-48.0957 48.3887-48.1445 45.2148-46.2891L17.9688-30.5176C14.0137-28.2227 13.916-23.7305 17.9688-21.3379ZM47.9004-10.5469L23.6328-24.6094C22.168-25.3906 22.168-26.4648 23.6328-27.2461L47.9004-41.3086C49.2188-42.041 50.3906-42.041 51.6602-41.3086L76.0254-27.2461C77.3926-26.5137 77.4414-25.3418 76.0254-24.6094L51.6602-10.5469C50.3906-9.81445 49.2188-9.81445 47.9004-10.5469ZM36.8652-15.332L68.2617-34.4727L63.8672-38.3789L31.9824-19.043ZM63.7695-15.2344L69.2871-18.5547L36.8164-37.3535L32.2754-33.4473Z"/>
  </g>
  <g id="Ultralight-S" transform="matrix(1 0 0 1 513.11 696)">
   <path class="monochrome-0 multicolor-0:tintColor hierarchical-0:secondary SFSymbolsPreviewWireframe" d="M46.5806-54.2602C47.7163-54.2602 48.6465-55.145 48.6465-56.2808C48.6465-57.3711 47.7163-58.3047 46.5806-58.3047C45.4903-58.3047 44.5601-57.3711 44.5601-56.2808C44.5601-55.145 45.4903-54.2602 46.5806-54.2602ZM46.5806-64.73C47.7163-64.73 48.6465-65.6602 48.6465-66.7959C48.6465-67.8862 47.7163-68.8164 46.5806-68.8164C45.4903-68.8164 44.5601-67.8862 44.5601-66.7959C44.5601-65.6602 45.4903-64.73 46.5806-64.73ZM46.5806-33.2334C47.7163-33.2334 48.6465-34.1182 48.6465-35.2539C48.6465-36.3897 47.7163-37.2744 46.5806-37.2744C45.4903-37.2744 44.5601-36.3897 44.5601-35.2539C44.5601-34.1182 45.4903-33.2334 46.5806-33.2334ZM46.5806-43.7485C47.7163-43.7485 48.6465-44.6333 48.6465-45.769C48.6465-46.8594 47.7163-47.7896 46.5806-47.7896C45.4903-47.7896 44.5601-46.8594 44.5601-45.769C44.5601-44.6333 45.4903-43.7485 46.5806-43.7485ZM11.7373-2.51805C12.8731-2.51805 13.8032-3.44823 13.8032-4.53857C13.8032-5.67432 12.8731-6.6045 11.7373-6.6045C10.647-6.6045 9.7168-5.67432 9.7168-4.53857C9.7168-3.44823 10.647-2.51805 11.7373-2.51805ZM20.8818-7.75291C22.0176-7.75291 22.9024-8.68309 22.9024-9.77343C22.9024-10.9092 22.0176-11.8394 20.8818-11.8394C19.7915-11.8394 18.8579-10.9092 18.8579-9.77343C18.8579-8.68309 19.7915-7.75291 20.8818-7.75291ZM29.9741-12.9844C31.1099-12.9844 31.9947-13.918 31.9947-15.0083C31.9947-16.144 31.1099-17.0288 29.9741-17.0288C28.8384-17.0288 27.9536-16.144 27.9536-15.0083C27.9536-13.918 28.8384-12.9844 29.9741-12.9844ZM39.1187-18.2646C40.2544-18.2646 41.1392-19.1948 41.1392-20.2852C41.1392-21.4209 40.2544-22.3091 39.1187-22.3091C37.9829-22.3091 37.0981-21.4209 37.0981-20.2852C37.0981-19.1948 37.9829-18.2646 39.1187-18.2646ZM81.4239-2.51805C82.5142-2.51805 83.4444-3.44823 83.4444-4.53857C83.4444-5.67432 82.5142-6.6045 81.4239-6.6045C80.2881-6.6045 79.3579-5.67432 79.3579-4.53857C79.3579-3.44823 80.2881-2.51805 81.4239-2.51805ZM72.2793-7.75291C73.3697-7.75291 74.2999-8.68309 74.2999-9.77343C74.2999-10.9092 73.3697-11.8394 72.2793-11.8394C71.1436-11.8394 70.2134-10.9092 70.2134-9.77343C70.2134-8.68309 71.1436-7.75291 72.2793-7.75291ZM63.1836-12.9844C64.274-12.9844 65.2041-13.918 65.2041-15.0083C65.2041-16.144 64.274-17.0288 63.1836-17.0288C62.0479-17.0288 61.1631-16.144 61.1631-15.0083C61.1631-13.918 62.0479-12.9844 63.1836-12.9844ZM54.0391-18.2646C55.1294-18.2646 56.0596-19.1948 56.0596-20.2852C56.0596-21.4209 55.1294-22.3091 54.0391-22.3091C52.9033-22.3091 52.0186-21.4209 52.0186-20.2852C52.0186-19.1948 52.9033-18.2646 54.0391-18.2646Z"/>
   <path class="monochrome-1 multicolor-1:tintColor hierarchical-1:primary SFSymbolsPreviewWireframe" d="M42.0161-4.13132C45.0484-2.36422 48.2056-2.31979 51.2325-4.08591L80.4346-20.9438C84.9356-23.5356 84.4156-28.5571 80.48-30.9117L51.2325-47.815C48.2056-49.5811 45.0484-49.5367 42.0161-47.7696L12.8208-30.9117C8.87157-28.5503 8.36523-23.539 12.8662-20.9438Z"/>
   <path class="monochrome-2 multicolor-2:tintColor hierarchical-2:primary SFSymbolsPreviewWireframe" d="M43.5347-6.79247C45.6641-5.57274 47.6753-5.57616 49.7173-6.74706L78.916-23.6084C81.376-25.0439 80.8662-27.0942 78.9614-28.2471L49.7173-45.1538C47.6753-46.3247 45.6641-46.3281 43.5347-45.1084L14.336-28.2471C12.4243-27.0874 11.918-25.0474 14.3814-23.6084ZM44.2676-8.77589L15.459-25.3813C14.9932-25.7085 14.9932-26.374 15.459-26.6558L44.2676-43.125C45.9492-44.0845 47.2119-44.0845 48.9356-43.125L77.8418-26.6558C78.3008-26.3774 78.3042-25.6597 77.8418-25.3813L48.9356-8.77589C47.2119-7.81642 45.9492-7.81642 44.2676-8.77589ZM30.19-15.8315L64.4473-36.062L62.3687-37.1074L28.168-16.9541ZM63.7241-16.3696L65.9268-17.2832L31.1402-36.627L29.0513-35.5361Z"/>
  </g>
 </g>
</svg>
