<?xml version="1.0" encoding="UTF-8"?>
<!--Generator: Apple Native CoreSVG 341-->
<!DOCTYPE svg
PUBLIC "-//W3C//DTD SVG 1.1//EN"
       "http://www.w3.org/Graphics/SVG/1.1/DTD/svg11.dtd">
<svg version="1.1" xmlns="http://www.w3.org/2000/svg" xmlns:xlink="http://www.w3.org/1999/xlink" viewBox="0 0 3300 2200">
 <!--glyph: "10321F", point size: 100.0, font version: "21.1d1e1", template writer version: "138.0.0"-->
 <style>.defaults {-sfsymbols-variable-value-mode:color;-sfsymbols-draw-reverses-motion-groups:false}

.monochrome-0 {-sfsymbols-motion-group:1;-sfsymbols-layer-tags:graph.2d}
.monochrome-1 {-sfsymbols-clear-behind:true;-sfsymbols-motion-group:0;-sfsymbols-layer-tags:graph.2d}

.multicolor-0:tintColor {-sfsymbols-motion-group:1;-sfsymbols-layer-tags:graph.2d}
.multicolor-1:tintColor {-sfsymbols-clear-behind:true;-sfsymbols-motion-group:0;-sfsymbols-layer-tags:graph.2d}

.hierarchical-0:secondary {-sfsymbols-motion-group:1;-sfsymbols-layer-tags:graph.2d}
.hierarchical-1:primary {-sfsymbols-clear-behind:true;-sfsymbols-motion-group:0;-sfsymbols-layer-tags:graph.2d}

.SFSymbolsPreviewWireframe {fill:none;opacity:1.0;stroke:black;stroke-width:0.5}
</style>
 <g id="Notes">
  <rect height="2200" id="artboard" style="fill:white;opacity:1" width="3300" x="0" y="0"/>
  <line style="fill:none;stroke:black;opacity:1;stroke-width:0.5;" x1="263" x2="3036" y1="292" y2="292"/>
  <text style="stroke:none;fill:black;font-family:sans-serif;font-size:13;font-weight:bold;" transform="matrix(1 0 0 1 263 322)">Weight/Scale Variations</text>
  <text style="stroke:none;fill:black;font-family:sans-serif;font-size:13;text-anchor:middle;" transform="matrix(1 0 0 1 559.711 322)">Ultralight</text>
  <text style="stroke:none;fill:black;font-family:sans-serif;font-size:13;text-anchor:middle;" transform="matrix(1 0 0 1 856.422 322)">Thin</text>
  <text style="stroke:none;fill:black;font-family:sans-serif;font-size:13;text-anchor:middle;" transform="matrix(1 0 0 1 1153.13 322)">Light</text>
  <text style="stroke:none;fill:black;font-family:sans-serif;font-size:13;text-anchor:middle;" transform="matrix(1 0 0 1 1449.84 322)">Regular</text>
  <text style="stroke:none;fill:black;font-family:sans-serif;font-size:13;text-anchor:middle;" transform="matrix(1 0 0 1 1746.56 322)">Medium</text>
  <text style="stroke:none;fill:black;font-family:sans-serif;font-size:13;text-anchor:middle;" transform="matrix(1 0 0 1 2043.27 322)">Semibold</text>
  <text style="stroke:none;fill:black;font-family:sans-serif;font-size:13;text-anchor:middle;" transform="matrix(1 0 0 1 2339.98 322)">Bold</text>
  <text style="stroke:none;fill:black;font-family:sans-serif;font-size:13;text-anchor:middle;" transform="matrix(1 0 0 1 2636.69 322)">Heavy</text>
  <text style="stroke:none;fill:black;font-family:sans-serif;font-size:13;text-anchor:middle;" transform="matrix(1 0 0 1 2933.4 322)">Black</text>
  <line style="fill:none;stroke:black;opacity:1;stroke-width:0.5;" x1="263" x2="3036" y1="1903" y2="1903"/>
  <g transform="matrix(0.2 0 0 0.2 263 1933)">
   <path d="m46.2402 4.15039c21.7773 0 39.4531-17.627 39.4531-39.4043s-17.6758-39.4043-39.4531-39.4043c-21.7285 0-39.4043 17.627-39.4043 39.4043s17.6758 39.4043 39.4043 39.4043Zm0-7.42188c-17.6758 0-31.9336-14.3066-31.9336-31.9824s14.2578-31.9824 31.9336-31.9824 31.9824 14.3066 31.9824 31.9824-14.3066 31.9824-31.9824 31.9824Zm3.61328-17.7734v-28.4668c0-2.24609-1.46484-3.75977-3.71094-3.75977-2.14844 0-3.61328 1.51367-3.61328 3.75977v28.4668c0 2.19727 1.46484 3.71094 3.61328 3.71094 2.24609 0 3.71094-1.51367 3.71094-3.71094Zm-17.8223-10.5957h28.418c2.19727 0 3.71094-1.46484 3.71094-3.61328 0-2.19727-1.51367-3.71094-3.71094-3.71094h-28.418c-2.24609 0-3.75977 1.51367-3.75977 3.71094 0 2.14844 1.51367 3.61328 3.75977 3.61328Z"/>
  </g>
  <g transform="matrix(0.2 0 0 0.2 281.506 1933)">
   <path d="m58.5449 14.5508c27.4902 0 49.8047-22.3145 49.8047-49.8047s-22.3145-49.8047-49.8047-49.8047-49.8047 22.3145-49.8047 49.8047 22.3145 49.8047 49.8047 49.8047Zm0-8.30078c-22.9492 0-41.5039-18.5547-41.5039-41.5039s18.5547-41.5039 41.5039-41.5039 41.5039 18.5547 41.5039 41.5039-18.5547 41.5039-41.5039 41.5039Zm4.05273-23.0957v-36.9141c0-2.49023-1.70898-4.19922-4.15039-4.19922-2.39258 0-4.05273 1.70898-4.05273 4.19922v36.9141c0 2.44141 1.66016 4.15039 4.05273 4.15039 2.44141 0 4.15039-1.66016 4.15039-4.15039Zm-22.5586-14.4043h36.9629c2.44141 0 4.15039-1.61133 4.15039-4.00391 0-2.44141-1.70898-4.15039-4.15039-4.15039h-36.9629c-2.49023 0-4.15039 1.70898-4.15039 4.15039 0 2.39258 1.66016 4.00391 4.15039 4.00391Z"/>
  </g>
  <g transform="matrix(0.2 0 0 0.2 304.924 1933)">
   <path d="m74.8535 28.3203c35.1074 0 63.623-28.4668 63.623-63.5742s-28.5156-63.623-63.623-63.623-63.5742 28.5156-63.5742 63.623 28.4668 63.5742 63.5742 63.5742Zm0-9.08203c-30.127 0-54.4922-24.3652-54.4922-54.4922s24.3652-54.4922 54.4922-54.4922 54.4922 24.3652 54.4922 54.4922-24.3652 54.4922-54.4922 54.4922Zm4.44336-30.3223v-48.4863c0-2.73438-1.85547-4.63867-4.54102-4.63867-2.58789 0-4.44336 1.9043-4.44336 4.63867v48.4863c0 2.68555 1.85547 4.58984 4.44336 4.58984 2.68555 0 4.54102-1.85547 4.54102-4.58984Zm-28.7109-19.7754h48.4863c2.68555 0 4.58984-1.80664 4.58984-4.39453 0-2.73438-1.85547-4.58984-4.58984-4.58984h-48.4863c-2.73438 0-4.58984 1.85547-4.58984 4.58984 0 2.58789 1.85547 4.39453 4.58984 4.39453Z"/>
  </g>
  <text style="stroke:none;fill:black;font-family:sans-serif;font-size:13;font-weight:bold;" transform="matrix(1 0 0 1 263 1953)">Design Variations</text>
  <text style="stroke:none;fill:black;font-family:sans-serif;font-size:13;" transform="matrix(1 0 0 1 263 1971)">Symbols are supported in up to nine weights and three scales.</text>
  <text style="stroke:none;fill:black;font-family:sans-serif;font-size:13;" transform="matrix(1 0 0 1 263 1989)">For optimal layout with text and other symbols, vertically align</text>
  <text style="stroke:none;fill:black;font-family:sans-serif;font-size:13;" transform="matrix(1 0 0 1 263 2007)">symbols with the adjacent text.</text>
  <line style="fill:none;stroke:#00AEEF;stroke-width:0.5;opacity:1.0;" x1="776" x2="776" y1="1919" y2="1933"/>
  <g transform="matrix(0.2 0 0 0.2 776 1933)">
   <path d="m16.5527 0.78125c2.58789 0 3.85742-0.976562 4.78516-3.71094l20.5566-57.5195h0.244141l20.6055 57.5195c0.927734 2.73438 2.19727 3.71094 4.73633 3.71094 2.58789 0 4.24805-1.5625 4.24805-4.00391 0-0.830078-0.146484-1.61133-0.537109-2.63672l-22.9004-60.9863c-1.12305-2.97852-3.125-4.49219-6.25-4.49219-3.02734 0-5.07812 1.46484-6.15234 4.44336l-22.9004 61.084c-0.390625 1.02539-0.537109 1.80664-0.537109 2.63672 0 2.44141 1.5625 3.95508 4.10156 3.95508Zm10.2051-20.9473h30.6641c2.00195 0 3.66211-1.66016 3.66211-3.66211 0-2.05078-1.66016-3.66211-3.66211-3.66211h-30.6641c-2.00195 0-3.66211 1.61133-3.66211 3.66211 0 2.00195 1.66016 3.66211 3.66211 3.66211Z"/>
  </g>
  <line style="fill:none;stroke:#00AEEF;stroke-width:0.5;opacity:1.0;" x1="792.836" x2="792.836" y1="1919" y2="1933"/>
  <text style="stroke:none;fill:black;font-family:sans-serif;font-size:13;font-weight:bold;" transform="matrix(1 0 0 1 776 1953)">Margins</text>
  <text style="stroke:none;fill:black;font-family:sans-serif;font-size:13;" transform="matrix(1 0 0 1 776 1971)">Leading and trailing margins on the left and right side of each symbol</text>
  <text style="stroke:none;fill:black;font-family:sans-serif;font-size:13;" transform="matrix(1 0 0 1 776 1989)">can be adjusted by modifying the x-location of the margin guidelines.</text>
  <text style="stroke:none;fill:black;font-family:sans-serif;font-size:13;" transform="matrix(1 0 0 1 776 2007)">Modifications are automatically applied proportionally to all</text>
  <text style="stroke:none;fill:black;font-family:sans-serif;font-size:13;" transform="matrix(1 0 0 1 776 2025)">scales and weights.</text>
  <g transform="matrix(0.2 0 0 0.2 1289 1933)">
   <path d="m14.209 13.1348 7.86133 7.86133c4.29688 4.39453 9.32617 4.10156 13.8672-1.02539l60.6934-68.2129-4.88281-4.88281-60.2539 67.6758c-1.80664 1.95312-3.4668 2.44141-5.81055 0.0976562l-5.17578-5.12695c-2.29492-2.29492-1.80664-3.95508 0.195312-5.81055l67.4805-62.1582-4.88281-4.83398-68.0664 62.5977c-4.98047 4.58984-5.32227 9.47266-1.02539 13.8184Zm44.873-97.4609c-2.05078 2.00195-2.24609 4.88281-1.07422 6.78711 1.12305 1.80664 3.4668 3.02734 6.5918 2.24609 5.85938-1.66016 12.5977-2.39258 18.8965 0.927734l-2.68555 7.12891c-1.61133 4.00391-0.732422 6.88477 1.70898 9.42383l10.2539 10.3027c2.34375 2.39258 4.54102 2.44141 7.08008 1.95312l4.44336-0.732422 2.58789 2.53906-0.195312 2.24609c-0.0976562 2.29492 0.537109 4.29688 2.7832 6.49414l3.36914 3.32031c2.29492 2.29492 5.51758 2.49023 7.8125 0.195312l12.9883-13.0371c2.29492-2.34375 2.14844-5.37109-0.195312-7.66602l-3.41797-3.41797c-2.19727-2.19727-4.05273-3.02734-6.34766-2.88086l-2.34375 0.244141-2.44141-2.44141 1.02539-4.6875c0.634766-2.73438-0.244141-4.98047-2.88086-7.61719l-11.2793-11.1816c-12.9395-12.8418-35.5957-11.0352-46.6797-0.146484Zm7.08008 2.05078c8.78906-6.39648 25.9766-5.66406 33.6914 1.95312l12.3047 12.207c1.02539 1.02539 1.2207 1.80664 0.927734 3.32031l-1.46484 6.64062 6.73828 6.68945 4.39453-0.244141c1.12305-0.0488281 1.51367 0.0488281 2.34375 0.878906l2.53906 2.49023-10.8398 10.8398-2.49023-2.49023c-0.830078-0.878906-0.976562-1.2207-0.927734-2.39258l0.292969-4.3457-6.68945-6.73828-6.83594 1.17188c-1.41602 0.292969-2.05078 0.195312-3.17383-0.878906l-8.93555-8.88672c-1.07422-1.02539-1.17188-1.70898-0.488281-3.36914l4.58984-11.4746c-6.10352-6.34766-17.041-7.51953-25.5859-4.58984-0.683594 0.244141-0.927734-0.390625-0.390625-0.78125Z"/>
  </g>
  <text style="stroke:none;fill:black;font-family:sans-serif;font-size:13;font-weight:bold;" transform="matrix(1 0 0 1 1289 1953)">Exporting</text>
  <text style="stroke:none;fill:black;font-family:sans-serif;font-size:13;" transform="matrix(1 0 0 1 1289 1971)">Symbols should be outlined when exporting to ensure the</text>
  <text style="stroke:none;fill:black;font-family:sans-serif;font-size:13;" transform="matrix(1 0 0 1 1289 1989)">design is preserved when submitting to Xcode.</text>
  <text id="template-version" style="stroke:none;fill:black;font-family:sans-serif;font-size:13;text-anchor:end;" transform="matrix(1 0 0 1 3036 1933)">Template v.7.0</text>
  <text style="stroke:none;fill:black;font-family:sans-serif;font-size:13;text-anchor:end;" transform="matrix(1 0 0 1 3036 1951)">Requires Xcode 26 or greater</text>
  <text id="descriptive-name" style="stroke:none;fill:black;font-family:sans-serif;font-size:13;text-anchor:end;" transform="matrix(1 0 0 1 3036 1969)">Generated from graph.2d</text>
  <text style="stroke:none;fill:black;font-family:sans-serif;font-size:13;text-anchor:end;" transform="matrix(1 0 0 1 3036 1987)">Typeset at 100.0 points</text>
  <text style="stroke:none;fill:black;font-family:sans-serif;font-size:13;" transform="matrix(1 0 0 1 263 726)">Small</text>
  <text style="stroke:none;fill:black;font-family:sans-serif;font-size:13;" transform="matrix(1 0 0 1 263 1156)">Medium</text>
  <text style="stroke:none;fill:black;font-family:sans-serif;font-size:13;" transform="matrix(1 0 0 1 263 1586)">Large</text>
 </g>
 <g id="Guides">
  <g id="H-reference" style="fill:#27AAE1;stroke:none;" transform="matrix(1 0 0 1 339 696)">
   <path d="M0.993654 0L3.63775 0L29.3281-67.1323L30.0303-67.1323L30.0303-70.459L28.1226-70.459ZM11.6885-24.4799L46.9815-24.4799L46.2315-26.7285L12.4385-26.7285ZM55.1196 0L57.7637 0L30.6382-70.459L29.4326-70.459L29.4326-67.1323Z"/>
  </g>
  <line id="Baseline-S" style="fill:none;stroke:#27AAE1;opacity:1;stroke-width:0.5;" x1="263" x2="3036" y1="696" y2="696"/>
  <line id="Capline-S" style="fill:none;stroke:#27AAE1;opacity:1;stroke-width:0.5;" x1="263" x2="3036" y1="625.541" y2="625.541"/>
  <g id="H-reference" style="fill:#27AAE1;stroke:none;" transform="matrix(1 0 0 1 339 1126)">
   <path d="M0.993654 0L3.63775 0L29.3281-67.1323L30.0303-67.1323L30.0303-70.459L28.1226-70.459ZM11.6885-24.4799L46.9815-24.4799L46.2315-26.7285L12.4385-26.7285ZM55.1196 0L57.7637 0L30.6382-70.459L29.4326-70.459L29.4326-67.1323Z"/>
  </g>
  <line id="Baseline-M" style="fill:none;stroke:#27AAE1;opacity:1;stroke-width:0.5;" x1="263" x2="3036" y1="1126" y2="1126"/>
  <line id="Capline-M" style="fill:none;stroke:#27AAE1;opacity:1;stroke-width:0.5;" x1="263" x2="3036" y1="1055.54" y2="1055.54"/>
  <g id="H-reference" style="fill:#27AAE1;stroke:none;" transform="matrix(1 0 0 1 339 1556)">
   <path d="M0.993654 0L3.63775 0L29.3281-67.1323L30.0303-67.1323L30.0303-70.459L28.1226-70.459ZM11.6885-24.4799L46.9815-24.4799L46.2315-26.7285L12.4385-26.7285ZM55.1196 0L57.7637 0L30.6382-70.459L29.4326-70.459L29.4326-67.1323Z"/>
  </g>
  <line id="Baseline-L" style="fill:none;stroke:#27AAE1;opacity:1;stroke-width:0.5;" x1="263" x2="3036" y1="1556" y2="1556"/>
  <line id="Capline-L" style="fill:none;stroke:#27AAE1;opacity:1;stroke-width:0.5;" x1="263" x2="3036" y1="1485.54" y2="1485.54"/>
  <line id="right-margin-Black-S" style="fill:none;stroke:#00AEEF;stroke-width:0.5;opacity:1.0;" x1="2981.54" x2="2981.54" y1="600.785" y2="720.121"/>
  <line id="left-margin-Black-S" style="fill:none;stroke:#00AEEF;stroke-width:0.5;opacity:1.0;" x1="2885.26" x2="2885.26" y1="600.785" y2="720.121"/>
  <line id="right-margin-Regular-S" style="fill:none;stroke:#00AEEF;stroke-width:0.5;opacity:1.0;" x1="1495.38" x2="1495.38" y1="600.785" y2="720.121"/>
  <line id="left-margin-Regular-S" style="fill:none;stroke:#00AEEF;stroke-width:0.5;opacity:1.0;" x1="1404.31" x2="1404.31" y1="600.785" y2="720.121"/>
  <line id="right-margin-Ultralight-S" style="fill:none;stroke:#00AEEF;stroke-width:0.5;opacity:1.0;" x1="603.041" x2="603.041" y1="600.785" y2="720.121"/>
  <line id="left-margin-Ultralight-S" style="fill:none;stroke:#00AEEF;stroke-width:0.5;opacity:1.0;" x1="516.381" x2="516.381" y1="600.785" y2="720.121"/>
 </g>
 <g id="Symbols">
  <g id="Black-S" transform="matrix(1 0 0 1 2885.26 696)">
   <path class="monochrome-0 multicolor-0:tintColor hierarchical-0:secondary SFSymbolsPreviewWireframe" d="M48.1445-63.3789C50.9766-63.3789 53.2715-65.6738 53.2715-68.5059C53.2715-71.3379 50.9766-73.6328 48.1445-73.6328C45.3125-73.6328 43.0176-71.3379 43.0176-68.5059C43.0176-65.6738 45.3125-63.3789 48.1445-63.3789ZM81.3965-30.127C84.2285-30.127 86.5234-32.4219 86.5234-35.2539C86.5234-38.0859 84.2285-40.3809 81.3965-40.3809C78.5645-40.3809 76.2695-38.0859 76.2695-35.2539C76.2695-32.4219 78.5645-30.127 81.3965-30.127ZM48.1445 3.125C50.9766 3.125 53.2715 0.830078 53.2715-2.00195C53.2715-4.83398 50.9766-7.12891 48.1445-7.12891C45.3125-7.12891 43.0176-4.83398 43.0176-2.00195C43.0176 0.830078 45.3125 3.125 48.1445 3.125ZM14.8926-30.127C17.7246-30.127 20.0195-32.4219 20.0195-35.2539C20.0195-38.0859 17.7246-40.3809 14.8926-40.3809C12.0605-40.3809 9.76562-38.0859 9.76562-35.2539C9.76562-32.4219 12.0605-30.127 14.8926-30.127ZM48.1445-52.2949C50.9766-52.2949 53.2715-54.5898 53.2715-57.4219C53.2715-60.2539 50.9766-62.5488 48.1445-62.5488C45.3125-62.5488 43.0176-60.2539 43.0176-57.4219C43.0176-54.5898 45.3125-52.2949 48.1445-52.2949ZM48.1445-41.2109C50.9766-41.2109 53.2715-43.5059 53.2715-46.3379C53.2715-49.1699 50.9766-51.4648 48.1445-51.4648C45.3125-51.4648 43.0176-49.1699 43.0176-46.3379C43.0176-43.5059 45.3125-41.2109 48.1445-41.2109ZM48.1445-19.043C50.9766-19.043 53.2715-21.3379 53.2715-24.1699C53.2715-27.002 50.9766-29.2969 48.1445-29.2969C45.3125-29.2969 43.0176-27.002 43.0176-24.1699C43.0176-21.3379 45.3125-19.043 48.1445-19.043ZM48.1445-7.95898C50.9766-7.95898 53.2715-10.2539 53.2715-13.0859C53.2715-15.918 50.9766-18.2129 48.1445-18.2129C45.3125-18.2129 43.0176-15.918 43.0176-13.0859C43.0176-10.2539 45.3125-7.95898 48.1445-7.95898ZM25.9766-30.127C28.8086-30.127 31.1035-32.4219 31.1035-35.2539C31.1035-38.0859 28.8086-40.3809 25.9766-40.3809C23.1445-40.3809 20.8496-38.0859 20.8496-35.2539C20.8496-32.4219 23.1445-30.127 25.9766-30.127ZM37.0605-30.127C39.8926-30.127 42.1875-32.4219 42.1875-35.2539C42.1875-38.0859 39.8926-40.3809 37.0605-40.3809C34.2285-40.3809 31.9336-38.0859 31.9336-35.2539C31.9336-32.4219 34.2285-30.127 37.0605-30.127ZM59.2285-30.127C62.0605-30.127 64.3555-32.4219 64.3555-35.2539C64.3555-38.0859 62.0605-40.3809 59.2285-40.3809C56.3965-40.3809 54.1016-38.0859 54.1016-35.2539C54.1016-32.4219 56.3965-30.127 59.2285-30.127ZM70.3125-30.127C73.1445-30.127 75.4395-32.4219 75.4395-35.2539C75.4395-38.0859 73.1445-40.3809 70.3125-40.3809C67.4805-40.3809 65.1855-38.0859 65.1855-35.2539C65.1855-32.4219 67.4805-30.127 70.3125-30.127ZM48.1445-30.127C50.9766-30.127 53.2715-32.4219 53.2715-35.2539C53.2715-38.0859 50.9766-40.3809 48.1445-40.3809C45.3125-40.3809 43.0176-38.0859 43.0176-35.2539C43.0176-32.4219 45.3125-30.127 48.1445-30.127Z"/>
   <path class="monochrome-1 multicolor-1:tintColor hierarchical-1:primary SFSymbolsPreviewWireframe" d="M15.4297-8.59375C12.6953-8.10547 10.7422-5.41992 11.1816-2.68555C11.6699 0.0488281 14.3555 2.00195 17.0898 1.5625C34.7168-1.36719 43.5547-12.5977 52.832-33.1543C60.1562-49.4141 66.4551-59.5703 80.8594-61.9141C83.5938-62.4023 85.5469-65.0879 85.1074-67.8223C84.6191-70.5566 81.9336-72.5098 79.1992-72.0703C61.5723-69.1406 52.7344-57.9102 43.457-37.3535C36.1328-21.0938 29.834-10.9375 15.4297-8.59375Z" data-clipstroke-keyframes="0 0 0 0.07214069 0.0005874634 0 0.50150627 0.30951786 0.80898285 0 1 0.49922752 0.5721407"/>
  </g>
  <g id="Regular-S" transform="matrix(1 0 0 1 1404.31 696)">
   <path class="monochrome-0 multicolor-0:tintColor hierarchical-0:secondary SFSymbolsPreviewWireframe" d="M45.5078-63.8672C47.4609-63.8672 49.1211-65.4785 49.1211-67.4316C49.1211-69.3848 47.4609-70.9961 45.5078-70.9961C43.5547-70.9961 41.9434-69.3848 41.9434-67.4316C41.9434-65.4785 43.5547-63.8672 45.5078-63.8672ZM77.7344-31.6895C79.6875-31.6895 81.2988-33.3008 81.2988-35.2539C81.2988-37.207 79.6875-38.8184 77.7344-38.8184C75.7812-38.8184 74.1211-37.207 74.1211-35.2539C74.1211-33.3008 75.7812-31.6895 77.7344-31.6895ZM45.5078 0.488281C47.4609 0.488281 49.1211-1.12305 49.1211-3.07617C49.1211-5.0293 47.4609-6.64062 45.5078-6.64062C43.5547-6.64062 41.9434-5.0293 41.9434-3.07617C41.9434-1.12305 43.5547 0.488281 45.5078 0.488281ZM13.3301-31.6895C15.2832-31.6895 16.8945-33.3008 16.8945-35.2539C16.8945-37.207 15.2832-38.8184 13.3301-38.8184C11.377-38.8184 9.76562-37.207 9.76562-35.2539C9.76562-33.3008 11.377-31.6895 13.3301-31.6895ZM45.5078-53.125C47.4609-53.125 49.1211-54.7363 49.1211-56.6895C49.1211-58.6426 47.4609-60.3027 45.5078-60.3027C43.5547-60.3027 41.9434-58.6426 41.9434-56.6895C41.9434-54.7363 43.5547-53.125 45.5078-53.125ZM45.5078-42.4316C47.4609-42.4316 49.1211-44.043 49.1211-45.9961C49.1211-47.9492 47.4609-49.5605 45.5078-49.5605C43.5547-49.5605 41.9434-47.9492 41.9434-45.9961C41.9434-44.043 43.5547-42.4316 45.5078-42.4316ZM45.5078-20.9473C47.4609-20.9473 49.1211-22.5586 49.1211-24.5117C49.1211-26.4648 47.4609-28.0762 45.5078-28.0762C43.5547-28.0762 41.9434-26.4648 41.9434-24.5117C41.9434-22.5586 43.5547-20.9473 45.5078-20.9473ZM45.5078-10.2051C47.4609-10.2051 49.1211-11.8652 49.1211-13.8184C49.1211-15.7715 47.4609-17.3828 45.5078-17.3828C43.5547-17.3828 41.9434-15.7715 41.9434-13.8184C41.9434-11.8652 43.5547-10.2051 45.5078-10.2051ZM24.0723-31.6895C26.0254-31.6895 27.6367-33.3008 27.6367-35.2539C27.6367-37.207 26.0254-38.8184 24.0723-38.8184C22.1191-38.8184 20.5078-37.207 20.5078-35.2539C20.5078-33.3008 22.1191-31.6895 24.0723-31.6895ZM34.8145-31.6895C36.7676-31.6895 38.3789-33.3008 38.3789-35.2539C38.3789-37.207 36.7676-38.8184 34.8145-38.8184C32.8613-38.8184 31.2012-37.207 31.2012-35.2539C31.2012-33.3008 32.8613-31.6895 34.8145-31.6895ZM56.25-31.6895C58.2031-31.6895 59.8145-33.3008 59.8145-35.2539C59.8145-37.207 58.2031-38.8184 56.25-38.8184C54.2969-38.8184 52.6855-37.207 52.6855-35.2539C52.6855-33.3008 54.2969-31.6895 56.25-31.6895ZM66.9922-31.6895C68.9453-31.6895 70.5566-33.3008 70.5566-35.2539C70.5566-37.207 68.9453-38.8184 66.9922-38.8184C65.0391-38.8184 63.4277-37.207 63.4277-35.2539C63.4277-33.3008 65.0391-31.6895 66.9922-31.6895ZM45.5078-31.6895C47.4609-31.6895 49.1211-33.3008 49.1211-35.2539C49.1211-37.207 47.4609-38.8184 45.5078-38.8184C43.5547-38.8184 41.9434-37.207 41.9434-35.2539C41.9434-33.3008 43.5547-31.6895 45.5078-31.6895Z"/>
   <path class="monochrome-1 multicolor-1:tintColor hierarchical-1:primary SFSymbolsPreviewWireframe" d="M13.1348-7.12891C11.2305-6.78711 9.86328-4.98047 10.2051-3.07617C10.5469-1.2207 12.3535 0.146484 14.2578-0.195312C31.3965-2.97852 39.7949-14.0625 48.7793-33.9355C56.3965-50.8789 63.1348-61.1816 78.0273-63.6719C79.8828-63.9648 81.25-65.8203 80.9082-67.6758C80.6152-69.5801 78.7598-70.9473 76.9043-70.6055C59.7656-67.7734 51.3184-56.6895 42.3828-36.8652C34.7168-19.873 28.0273-9.57031 13.1348-7.12891Z" data-clipstroke-keyframes="0 0 0 0.052186966 0.00042915344 0 0.5005233 0.2929058 0.7922907 0 1 0.5005722 0.55203724"/>
  </g>
  <g id="Ultralight-S" transform="matrix(1 0 0 1 516.381 696)">
   <path class="monochrome-0 multicolor-0:tintColor hierarchical-0:secondary SFSymbolsPreviewWireframe" d="M43.3281-64.73C44.4639-64.73 45.3521-65.6602 45.3521-66.7959C45.3521-67.8862 44.4639-68.8164 43.3281-68.8164C42.1924-68.8164 41.3076-67.8862 41.3076-66.7959C41.3076-65.6602 42.1924-64.73 43.3281-64.73ZM74.8736-33.2334C75.9639-33.2334 76.8941-34.1182 76.8941-35.2539C76.8941-36.3897 75.9639-37.2744 74.8736-37.2744C73.7378-37.2744 72.8042-36.3897 72.8042-35.2539C72.8042-34.1182 73.7378-33.2334 74.8736-33.2334ZM43.3281-1.69139C44.4639-1.69139 45.3521-2.62157 45.3521-3.71191C45.3521-4.84766 44.4639-5.77784 43.3281-5.77784C42.1924-5.77784 41.3076-4.84766 41.3076-3.71191C41.3076-2.62157 42.1924-1.69139 43.3281-1.69139ZM11.7861-33.2334C12.9219-33.2334 13.8521-34.1182 13.8521-35.2539C13.8521-36.3897 12.9219-37.2744 11.7861-37.2744C10.6958-37.2744 9.76562-36.3897 9.76562-35.2539C9.76562-34.1182 10.6958-33.2334 11.7861-33.2334ZM43.3281-54.2602C44.4639-54.2602 45.3521-55.145 45.3521-56.2808C45.3521-57.3711 44.4639-58.3047 43.3281-58.3047C42.1924-58.3047 41.3076-57.3711 41.3076-56.2808C41.3076-55.145 42.1924-54.2602 43.3281-54.2602ZM43.3281-43.7485C44.4639-43.7485 45.3521-44.6333 45.3521-45.769C45.3521-46.8594 44.4639-47.7896 43.3281-47.7896C42.1924-47.7896 41.3076-46.8594 41.3076-45.769C41.3076-44.6333 42.1924-43.7485 43.3281-43.7485ZM43.3281-22.7182C44.4639-22.7182 45.3521-23.6484 45.3521-24.7388C45.3521-25.8745 44.4639-26.7593 43.3281-26.7593C42.1924-26.7593 41.3076-25.8745 41.3076-24.7388C41.3076-23.6484 42.1924-22.7182 43.3281-22.7182ZM43.3281-12.2031C44.4639-12.2031 45.3521-13.1367 45.3521-14.227C45.3521-15.3628 44.4639-16.2476 43.3281-16.2476C42.1924-16.2476 41.3076-15.3628 41.3076-14.227C41.3076-13.1367 42.1924-12.2031 43.3281-12.2031ZM22.3013-33.2334C23.437-33.2334 24.3218-34.1182 24.3218-35.2539C24.3218-36.3897 23.437-37.2744 22.3013-37.2744C21.2109-37.2744 20.2808-36.3897 20.2808-35.2539C20.2808-34.1182 21.2109-33.2334 22.3013-33.2334ZM32.8164-33.2334C33.9522-33.2334 34.8369-34.1182 34.8369-35.2539C34.8369-36.3897 33.9522-37.2744 32.8164-37.2744C31.6807-37.2744 30.7925-36.3897 30.7925-35.2539C30.7925-34.1182 31.6807-33.2334 32.8164-33.2334ZM53.8433-33.2334C54.9336-33.2334 55.8638-34.1182 55.8638-35.2539C55.8638-36.3897 54.9336-37.2744 53.8433-37.2744C52.7075-37.2744 51.8228-36.3897 51.8228-35.2539C51.8228-34.1182 52.7075-33.2334 53.8433-33.2334ZM64.3584-33.2334C65.4488-33.2334 66.3789-34.1182 66.3789-35.2539C66.3789-36.3897 65.4488-37.2744 64.3584-37.2744C63.2227-37.2744 62.2925-36.3897 62.2925-35.2539C62.2925-34.1182 63.2227-33.2334 64.3584-33.2334ZM43.3281-33.2334C44.4639-33.2334 45.3521-34.1182 45.3521-35.2539C45.3521-36.3897 44.4639-37.2744 43.3281-37.2744C42.1924-37.2744 41.3076-36.3897 41.3076-35.2539C41.3076-34.1182 42.1924-33.2334 43.3281-33.2334Z"/>
   <path class="monochrome-1 multicolor-1:tintColor hierarchical-1:primary SFSymbolsPreviewWireframe" d="M11.1821-4.54055C10.5947-4.4258 10.1811-3.79981 10.2505-3.25781C10.3652-2.67382 10.9458-2.26023 11.5332-2.32957C27.8999-5.02196 35.708-15.8335 44.2383-34.7075C52.3096-52.6499 59.6382-63.2251 75.3028-65.8061C75.8868-65.9175 76.3003-66.5015 76.231-67.0855C76.1197-67.6729 75.4903-68.0864 74.9517-68.0171C58.5396-65.3213 50.7734-54.5098 42.2466-35.5938C34.1719-17.6934 26.8013-7.11818 11.1821-4.54055Z" data-clipstroke-keyframes="0 0 0 0.01741314 0 0 0.5007781 0.26467705 0.76428986 0 1 0.49930096 0.5174236"/>
  </g>
 </g>
</svg>
