<?xml version="1.0" encoding="UTF-8"?>
<!--Generator: Apple Native CoreSVG 341-->
<!DOCTYPE svg
PUBLIC "-//W3C//DTD SVG 1.1//EN"
       "http://www.w3.org/Graphics/SVG/1.1/DTD/svg11.dtd">
<svg version="1.1" xmlns="http://www.w3.org/2000/svg" xmlns:xlink="http://www.w3.org/1999/xlink" viewBox="0 0 3300 2200">
 <!--glyph: "1030C3", point size: 100.0, font version: "21.1d1e1", template writer version: "138.0.0"-->
 <style>.defaults {-sfsymbols-variable-value-mode:color;-sfsymbols-draw-reverses-motion-groups:false}

.monochrome-0 {-sfsymbols-motion-group:1;-sfsymbols-layer-tags:apple.classical.pages}
.monochrome-1 {opacity:0.0;-sfsymbols-clear-behind:true;-sfsymbols-motion-group:0;-sfsymbols-layer-tags:apple.classical.pages}
.monochrome-2 {-sfsymbols-motion-group:0;-sfsymbols-layer-tags:apple.classical.pages}
.monochrome-3 {-sfsymbols-motion-group:0;-sfsymbols-layer-tags:apple.classical.pages}

.multicolor-0:tintColor {-sfsymbols-motion-group:1;-sfsymbols-layer-tags:apple.classical.pages}
.multicolor-1:tintColor {opacity:0.0;-sfsymbols-clear-behind:true;-sfsymbols-motion-group:0;-sfsymbols-layer-tags:apple.classical.pages}
.multicolor-2:tintColor {-sfsymbols-motion-group:0;-sfsymbols-layer-tags:apple.classical.pages}
.multicolor-3:tintColor {-sfsymbols-motion-group:0;-sfsymbols-layer-tags:apple.classical.pages}

.hierarchical-0:secondary {-sfsymbols-motion-group:1;-sfsymbols-layer-tags:apple.classical.pages}
.hierarchical-1:primary {opacity:0.0;-sfsymbols-clear-behind:true;-sfsymbols-motion-group:0;-sfsymbols-layer-tags:apple.classical.pages}
.hierarchical-2:primary {-sfsymbols-motion-group:0;-sfsymbols-layer-tags:apple.classical.pages}
.hierarchical-3:primary {-sfsymbols-motion-group:0;-sfsymbols-layer-tags:apple.classical.pages}

.SFSymbolsPreviewWireframe {fill:none;opacity:1.0;stroke:black;stroke-width:0.5}
</style>
 <g id="Notes">
  <rect height="2200" id="artboard" style="fill:white;opacity:1" width="3300" x="0" y="0"/>
  <line style="fill:none;stroke:black;opacity:1;stroke-width:0.5;" x1="263" x2="3036" y1="292" y2="292"/>
  <text style="stroke:none;fill:black;font-family:sans-serif;font-size:13;font-weight:bold;" transform="matrix(1 0 0 1 263 322)">Weight/Scale Variations</text>
  <text style="stroke:none;fill:black;font-family:sans-serif;font-size:13;text-anchor:middle;" transform="matrix(1 0 0 1 559.711 322)">Ultralight</text>
  <text style="stroke:none;fill:black;font-family:sans-serif;font-size:13;text-anchor:middle;" transform="matrix(1 0 0 1 856.422 322)">Thin</text>
  <text style="stroke:none;fill:black;font-family:sans-serif;font-size:13;text-anchor:middle;" transform="matrix(1 0 0 1 1153.13 322)">Light</text>
  <text style="stroke:none;fill:black;font-family:sans-serif;font-size:13;text-anchor:middle;" transform="matrix(1 0 0 1 1449.84 322)">Regular</text>
  <text style="stroke:none;fill:black;font-family:sans-serif;font-size:13;text-anchor:middle;" transform="matrix(1 0 0 1 1746.56 322)">Medium</text>
  <text style="stroke:none;fill:black;font-family:sans-serif;font-size:13;text-anchor:middle;" transform="matrix(1 0 0 1 2043.27 322)">Semibold</text>
  <text style="stroke:none;fill:black;font-family:sans-serif;font-size:13;text-anchor:middle;" transform="matrix(1 0 0 1 2339.98 322)">Bold</text>
  <text style="stroke:none;fill:black;font-family:sans-serif;font-size:13;text-anchor:middle;" transform="matrix(1 0 0 1 2636.69 322)">Heavy</text>
  <text style="stroke:none;fill:black;font-family:sans-serif;font-size:13;text-anchor:middle;" transform="matrix(1 0 0 1 2933.4 322)">Black</text>
  <line style="fill:none;stroke:black;opacity:1;stroke-width:0.5;" x1="263" x2="3036" y1="1903" y2="1903"/>
  <g transform="matrix(0.2 0 0 0.2 263 1933)">
   <path d="m46.2402 4.15039c21.7773 0 39.4531-17.627 39.4531-39.4043s-17.6758-39.4043-39.4531-39.4043c-21.7285 0-39.4043 17.627-39.4043 39.4043s17.6758 39.4043 39.4043 39.4043Zm0-7.42188c-17.6758 0-31.9336-14.3066-31.9336-31.9824s14.2578-31.9824 31.9336-31.9824 31.9824 14.3066 31.9824 31.9824-14.3066 31.9824-31.9824 31.9824Zm3.61328-17.7734v-28.4668c0-2.24609-1.46484-3.75977-3.71094-3.75977-2.14844 0-3.61328 1.51367-3.61328 3.75977v28.4668c0 2.19727 1.46484 3.71094 3.61328 3.71094 2.24609 0 3.71094-1.51367 3.71094-3.71094Zm-17.8223-10.5957h28.418c2.19727 0 3.71094-1.46484 3.71094-3.61328 0-2.19727-1.51367-3.71094-3.71094-3.71094h-28.418c-2.24609 0-3.75977 1.51367-3.75977 3.71094 0 2.14844 1.51367 3.61328 3.75977 3.61328Z"/>
  </g>
  <g transform="matrix(0.2 0 0 0.2 281.506 1933)">
   <path d="m58.5449 14.5508c27.4902 0 49.8047-22.3145 49.8047-49.8047s-22.3145-49.8047-49.8047-49.8047-49.8047 22.3145-49.8047 49.8047 22.3145 49.8047 49.8047 49.8047Zm0-8.30078c-22.9492 0-41.5039-18.5547-41.5039-41.5039s18.5547-41.5039 41.5039-41.5039 41.5039 18.5547 41.5039 41.5039-18.5547 41.5039-41.5039 41.5039Zm4.05273-23.0957v-36.9141c0-2.49023-1.70898-4.19922-4.15039-4.19922-2.39258 0-4.05273 1.70898-4.05273 4.19922v36.9141c0 2.44141 1.66016 4.15039 4.05273 4.15039 2.44141 0 4.15039-1.66016 4.15039-4.15039Zm-22.5586-14.4043h36.9629c2.44141 0 4.15039-1.61133 4.15039-4.00391 0-2.44141-1.70898-4.15039-4.15039-4.15039h-36.9629c-2.49023 0-4.15039 1.70898-4.15039 4.15039 0 2.39258 1.66016 4.00391 4.15039 4.00391Z"/>
  </g>
  <g transform="matrix(0.2 0 0 0.2 304.924 1933)">
   <path d="m74.8535 28.3203c35.1074 0 63.623-28.4668 63.623-63.5742s-28.5156-63.623-63.623-63.623-63.5742 28.5156-63.5742 63.623 28.4668 63.5742 63.5742 63.5742Zm0-9.08203c-30.127 0-54.4922-24.3652-54.4922-54.4922s24.3652-54.4922 54.4922-54.4922 54.4922 24.3652 54.4922 54.4922-24.3652 54.4922-54.4922 54.4922Zm4.44336-30.3223v-48.4863c0-2.73438-1.85547-4.63867-4.54102-4.63867-2.58789 0-4.44336 1.9043-4.44336 4.63867v48.4863c0 2.68555 1.85547 4.58984 4.44336 4.58984 2.68555 0 4.54102-1.85547 4.54102-4.58984Zm-28.7109-19.7754h48.4863c2.68555 0 4.58984-1.80664 4.58984-4.39453 0-2.73438-1.85547-4.58984-4.58984-4.58984h-48.4863c-2.73438 0-4.58984 1.85547-4.58984 4.58984 0 2.58789 1.85547 4.39453 4.58984 4.39453Z"/>
  </g>
  <text style="stroke:none;fill:black;font-family:sans-serif;font-size:13;font-weight:bold;" transform="matrix(1 0 0 1 263 1953)">Design Variations</text>
  <text style="stroke:none;fill:black;font-family:sans-serif;font-size:13;" transform="matrix(1 0 0 1 263 1971)">Symbols are supported in up to nine weights and three scales.</text>
  <text style="stroke:none;fill:black;font-family:sans-serif;font-size:13;" transform="matrix(1 0 0 1 263 1989)">For optimal layout with text and other symbols, vertically align</text>
  <text style="stroke:none;fill:black;font-family:sans-serif;font-size:13;" transform="matrix(1 0 0 1 263 2007)">symbols with the adjacent text.</text>
  <line style="fill:none;stroke:#00AEEF;stroke-width:0.5;opacity:1.0;" x1="776" x2="776" y1="1919" y2="1933"/>
  <g transform="matrix(0.2 0 0 0.2 776 1933)">
   <path d="m16.5527 0.78125c2.58789 0 3.85742-0.976562 4.78516-3.71094l20.5566-57.5195h0.244141l20.6055 57.5195c0.927734 2.73438 2.19727 3.71094 4.73633 3.71094 2.58789 0 4.24805-1.5625 4.24805-4.00391 0-0.830078-0.146484-1.61133-0.537109-2.63672l-22.9004-60.9863c-1.12305-2.97852-3.125-4.49219-6.25-4.49219-3.02734 0-5.07812 1.46484-6.15234 4.44336l-22.9004 61.084c-0.390625 1.02539-0.537109 1.80664-0.537109 2.63672 0 2.44141 1.5625 3.95508 4.10156 3.95508Zm10.2051-20.9473h30.6641c2.00195 0 3.66211-1.66016 3.66211-3.66211 0-2.05078-1.66016-3.66211-3.66211-3.66211h-30.6641c-2.00195 0-3.66211 1.61133-3.66211 3.66211 0 2.00195 1.66016 3.66211 3.66211 3.66211Z"/>
  </g>
  <line style="fill:none;stroke:#00AEEF;stroke-width:0.5;opacity:1.0;" x1="792.836" x2="792.836" y1="1919" y2="1933"/>
  <text style="stroke:none;fill:black;font-family:sans-serif;font-size:13;font-weight:bold;" transform="matrix(1 0 0 1 776 1953)">Margins</text>
  <text style="stroke:none;fill:black;font-family:sans-serif;font-size:13;" transform="matrix(1 0 0 1 776 1971)">Leading and trailing margins on the left and right side of each symbol</text>
  <text style="stroke:none;fill:black;font-family:sans-serif;font-size:13;" transform="matrix(1 0 0 1 776 1989)">can be adjusted by modifying the x-location of the margin guidelines.</text>
  <text style="stroke:none;fill:black;font-family:sans-serif;font-size:13;" transform="matrix(1 0 0 1 776 2007)">Modifications are automatically applied proportionally to all</text>
  <text style="stroke:none;fill:black;font-family:sans-serif;font-size:13;" transform="matrix(1 0 0 1 776 2025)">scales and weights.</text>
  <g transform="matrix(0.2 0 0 0.2 1289 1933)">
   <path d="m14.209 13.1348 7.86133 7.86133c4.29688 4.39453 9.32617 4.10156 13.8672-1.02539l60.6934-68.2129-4.88281-4.88281-60.2539 67.6758c-1.80664 1.95312-3.4668 2.44141-5.81055 0.0976562l-5.17578-5.12695c-2.29492-2.29492-1.80664-3.95508 0.195312-5.81055l67.4805-62.1582-4.88281-4.83398-68.0664 62.5977c-4.98047 4.58984-5.32227 9.47266-1.02539 13.8184Zm44.873-97.4609c-2.05078 2.00195-2.24609 4.88281-1.07422 6.78711 1.12305 1.80664 3.4668 3.02734 6.5918 2.24609 5.85938-1.66016 12.5977-2.39258 18.8965 0.927734l-2.68555 7.12891c-1.61133 4.00391-0.732422 6.88477 1.70898 9.42383l10.2539 10.3027c2.34375 2.39258 4.54102 2.44141 7.08008 1.95312l4.44336-0.732422 2.58789 2.53906-0.195312 2.24609c-0.0976562 2.29492 0.537109 4.29688 2.7832 6.49414l3.36914 3.32031c2.29492 2.29492 5.51758 2.49023 7.8125 0.195312l12.9883-13.0371c2.29492-2.34375 2.14844-5.37109-0.195312-7.66602l-3.41797-3.41797c-2.19727-2.19727-4.05273-3.02734-6.34766-2.88086l-2.34375 0.244141-2.44141-2.44141 1.02539-4.6875c0.634766-2.73438-0.244141-4.98047-2.88086-7.61719l-11.2793-11.1816c-12.9395-12.8418-35.5957-11.0352-46.6797-0.146484Zm7.08008 2.05078c8.78906-6.39648 25.9766-5.66406 33.6914 1.95312l12.3047 12.207c1.02539 1.02539 1.2207 1.80664 0.927734 3.32031l-1.46484 6.64062 6.73828 6.68945 4.39453-0.244141c1.12305-0.0488281 1.51367 0.0488281 2.34375 0.878906l2.53906 2.49023-10.8398 10.8398-2.49023-2.49023c-0.830078-0.878906-0.976562-1.2207-0.927734-2.39258l0.292969-4.3457-6.68945-6.73828-6.83594 1.17188c-1.41602 0.292969-2.05078 0.195312-3.17383-0.878906l-8.93555-8.88672c-1.07422-1.02539-1.17188-1.70898-0.488281-3.36914l4.58984-11.4746c-6.10352-6.34766-17.041-7.51953-25.5859-4.58984-0.683594 0.244141-0.927734-0.390625-0.390625-0.78125Z"/>
  </g>
  <text style="stroke:none;fill:black;font-family:sans-serif;font-size:13;font-weight:bold;" transform="matrix(1 0 0 1 1289 1953)">Exporting</text>
  <text style="stroke:none;fill:black;font-family:sans-serif;font-size:13;" transform="matrix(1 0 0 1 1289 1971)">Symbols should be outlined when exporting to ensure the</text>
  <text style="stroke:none;fill:black;font-family:sans-serif;font-size:13;" transform="matrix(1 0 0 1 1289 1989)">design is preserved when submitting to Xcode.</text>
  <text id="template-version" style="stroke:none;fill:black;font-family:sans-serif;font-size:13;text-anchor:end;" transform="matrix(1 0 0 1 3036 1933)">Template v.7.0</text>
  <text style="stroke:none;fill:black;font-family:sans-serif;font-size:13;text-anchor:end;" transform="matrix(1 0 0 1 3036 1951)">Requires Xcode 26 or greater</text>
  <text id="descriptive-name" style="stroke:none;fill:black;font-family:sans-serif;font-size:13;text-anchor:end;" transform="matrix(1 0 0 1 3036 1969)">Generated from apple.classical.pages</text>
  <text style="stroke:none;fill:black;font-family:sans-serif;font-size:13;text-anchor:end;" transform="matrix(1 0 0 1 3036 1987)">Typeset at 100.0 points</text>
  <text style="stroke:none;fill:black;font-family:sans-serif;font-size:13;" transform="matrix(1 0 0 1 263 726)">Small</text>
  <text style="stroke:none;fill:black;font-family:sans-serif;font-size:13;" transform="matrix(1 0 0 1 263 1156)">Medium</text>
  <text style="stroke:none;fill:black;font-family:sans-serif;font-size:13;" transform="matrix(1 0 0 1 263 1586)">Large</text>
 </g>
 <g id="Guides">
  <g id="H-reference" style="fill:#27AAE1;stroke:none;" transform="matrix(1 0 0 1 339 696)">
   <path d="M0.993654 0L3.63775 0L29.3281-67.1323L30.0303-67.1323L30.0303-70.459L28.1226-70.459ZM11.6885-24.4799L46.9815-24.4799L46.2315-26.7285L12.4385-26.7285ZM55.1196 0L57.7637 0L30.6382-70.459L29.4326-70.459L29.4326-67.1323Z"/>
  </g>
  <line id="Baseline-S" style="fill:none;stroke:#27AAE1;opacity:1;stroke-width:0.5;" x1="263" x2="3036" y1="696" y2="696"/>
  <line id="Capline-S" style="fill:none;stroke:#27AAE1;opacity:1;stroke-width:0.5;" x1="263" x2="3036" y1="625.541" y2="625.541"/>
  <g id="H-reference" style="fill:#27AAE1;stroke:none;" transform="matrix(1 0 0 1 339 1126)">
   <path d="M0.993654 0L3.63775 0L29.3281-67.1323L30.0303-67.1323L30.0303-70.459L28.1226-70.459ZM11.6885-24.4799L46.9815-24.4799L46.2315-26.7285L12.4385-26.7285ZM55.1196 0L57.7637 0L30.6382-70.459L29.4326-70.459L29.4326-67.1323Z"/>
  </g>
  <line id="Baseline-M" style="fill:none;stroke:#27AAE1;opacity:1;stroke-width:0.5;" x1="263" x2="3036" y1="1126" y2="1126"/>
  <line id="Capline-M" style="fill:none;stroke:#27AAE1;opacity:1;stroke-width:0.5;" x1="263" x2="3036" y1="1055.54" y2="1055.54"/>
  <g id="H-reference" style="fill:#27AAE1;stroke:none;" transform="matrix(1 0 0 1 339 1556)">
   <path d="M0.993654 0L3.63775 0L29.3281-67.1323L30.0303-67.1323L30.0303-70.459L28.1226-70.459ZM11.6885-24.4799L46.9815-24.4799L46.2315-26.7285L12.4385-26.7285ZM55.1196 0L57.7637 0L30.6382-70.459L29.4326-70.459L29.4326-67.1323Z"/>
  </g>
  <line id="Baseline-L" style="fill:none;stroke:#27AAE1;opacity:1;stroke-width:0.5;" x1="263" x2="3036" y1="1556" y2="1556"/>
  <line id="Capline-L" style="fill:none;stroke:#27AAE1;opacity:1;stroke-width:0.5;" x1="263" x2="3036" y1="1485.54" y2="1485.54"/>
  <line id="right-margin-Black-S" style="fill:none;stroke:#00AEEF;stroke-width:0.5;opacity:1.0;" x1="2984.08" x2="2984.08" y1="600.785" y2="720.121"/>
  <line id="left-margin-Black-S" style="fill:none;stroke:#00AEEF;stroke-width:0.5;opacity:1.0;" x1="2882.72" x2="2882.72" y1="600.785" y2="720.121"/>
  <line id="right-margin-Regular-S" style="fill:none;stroke:#00AEEF;stroke-width:0.5;opacity:1.0;" x1="1494.94" x2="1494.94" y1="600.785" y2="720.121"/>
  <line id="left-margin-Regular-S" style="fill:none;stroke:#00AEEF;stroke-width:0.5;opacity:1.0;" x1="1404.75" x2="1404.75" y1="600.785" y2="720.121"/>
  <line id="right-margin-Ultralight-S" style="fill:none;stroke:#00AEEF;stroke-width:0.5;opacity:1.0;" x1="600.74" x2="600.74" y1="600.785" y2="720.121"/>
  <line id="left-margin-Ultralight-S" style="fill:none;stroke:#00AEEF;stroke-width:0.5;opacity:1.0;" x1="518.683" x2="518.683" y1="600.785" y2="720.121"/>
 </g>
 <g id="Symbols">
  <g id="Black-S" transform="matrix(1 0 0 1 2882.72 696)">
   <path class="monochrome-0 multicolor-0:tintColor hierarchical-0:secondary SFSymbolsPreviewWireframe" d="M91.6016-3.36914L91.6016-59.1309C91.6016-68.9453 86.4258-74.1699 76.7578-74.1699L39.209-74.1699C29.541-74.1699 24.3652-68.9453 24.3652-59.1309L24.3652-3.36914C24.3652 6.44531 29.541 11.6699 39.209 11.6699L76.7578 11.6699C86.4258 11.6699 91.6016 6.44531 91.6016-3.36914Z"/>
   <path class="monochrome-1 multicolor-1:tintColor hierarchical-1:primary SFSymbolsPreviewWireframe" d="M2.92969-4.88281C2.92969 7.08008 11.1816 15.6738 24.5605 14.8438C37.8906 14.0137 54.4922 11.1328 65.332 7.76367C74.9512 4.73633 79.3945-2.29492 79.3945-13.0859L79.3945-68.7012C79.3945-82.6172 69.1895-90.1855 55.5176-86.8652C45.8008-84.4238 32.2754-82.2266 20.9473-81.3965C9.375-80.5176 2.92969-73.5352 2.92969-62.4512Z"/>
   <path class="monochrome-2 multicolor-2:tintColor hierarchical-2:primary SFSymbolsPreviewWireframe" d="M9.76562-4.88281C9.76562 3.32031 14.8926 8.59375 24.1211 8.00781C37.0117 7.22656 52.9785 4.44336 63.2812 1.2207C70.5078-1.02539 72.5586-5.9082 72.5586-13.0859L72.5586-68.7012C72.5586-78.418 66.2109-82.4219 57.1289-80.2246C47.168-77.7344 33.0566-75.4395 21.4844-74.5605C13.6719-73.9746 9.76562-70.166 9.76562-62.4512ZM21.9727-6.73828L21.9727-60.6934C21.9727-61.7188 22.9004-62.5488 24.2188-62.6465C33.4961-63.2324 47.4121-65.4785 57.9102-68.0664C59.3262-68.4082 60.3516-67.5781 60.3516-66.0156L60.3516-13.3789C60.3516-11.6699 60.2051-10.498 58.3496-9.91211C50.2441-7.27539 36.3281-4.93164 24.6094-4.19922C23.0469-4.10156 21.9727-4.93164 21.9727-6.73828Z"/>
   <path class="monochrome-3 multicolor-3:tintColor hierarchical-3:primary SFSymbolsPreviewWireframe" d="M43.7988-31.7871C45.8008-32.1777 47.0703-31.4453 47.0703-29.834C47.0703-27.6855 45.1172-25.8789 42.1387-25.2441C38.2812-24.4141 35.6445-26.3672 35.6445-30.0781C35.6445-38.1836 46.2891-42.5781 46.2891-53.8086C46.2891-56.5918 45.2148-57.959 43.2617-57.5684C39.6973-56.8359 36.5234-52.4902 36.5234-47.2168C36.5234-40.2832 44.0918-26.0254 44.0918-19.7266C44.0918-17.8223 43.2129-16.3574 41.7969-16.0645C41.6016-16.0645 41.4551-16.1133 41.4551-16.3086C41.4551-16.7969 42.1387-17.4805 42.1387-18.5547C42.1387-20.2148 40.9668-21.0938 39.209-20.6543C37.207-20.2637 35.9375-18.5547 35.9375-16.4551C35.9375-14.0625 38.3301-12.5977 41.4551-13.2812C44.7266-13.9648 46.875-16.748 46.875-20.3125C46.875-26.0254 39.5508-42.8223 39.3555-46.1426C39.209-49.2676 40.918-51.7578 43.1641-52.2461C43.3105-52.2949 43.457-52.1484 43.457-52.002C43.457-45.8984 29.7363-41.4551 29.7363-30.2246C29.7363-23.9258 34.5703-20.8984 41.9922-22.4609C48.2422-23.7793 52.3926-28.1738 52.3926-33.4961C52.3926-37.8418 49.5605-40.1367 45.2148-39.1602C40.918-38.2812 37.5977-34.3262 37.5977-29.8828C37.5977-28.6621 38.7695-28.418 39.8438-29.3457C40.8691-30.2734 42.334-31.4941 43.7988-31.7871Z"/>
  </g>
  <g id="Regular-S" transform="matrix(1 0 0 1 1404.75 696)">
   <path class="monochrome-0 multicolor-0:tintColor hierarchical-0:secondary SFSymbolsPreviewWireframe" d="M80.4199-3.36914L80.4199-59.4238C80.4199-67.7246 76.3672-71.875 68.1641-71.875L30.2246-71.875C22.0215-71.875 17.9688-67.7246 17.9688-59.4238L17.9688-3.36914C17.9688 4.98047 22.0215 9.08203 30.2246 9.08203L68.1641 9.08203C76.3672 9.08203 80.4199 4.98047 80.4199-3.36914Z"/>
   <path class="monochrome-1 multicolor-1:tintColor hierarchical-1:primary SFSymbolsPreviewWireframe" d="M4.05273-4.83398C4.05273 5.37109 10.8398 11.9141 22.1191 11.1816C35.1074 10.3027 46.2402 9.0332 61.6699 4.44336C69.8242 1.9043 73.291-3.32031 73.291-12.793L73.291-67.5293C73.291-79.8828 65.1855-85.9863 54.0527-83.252C43.8965-80.8105 33.8379-78.9062 20.1172-77.9785C10.7422-77.2949 4.05273-71.1914 4.05273-60.7422Z"/>
   <path class="monochrome-2 multicolor-2:tintColor hierarchical-2:primary SFSymbolsPreviewWireframe" d="M9.76562-4.83398C9.76562 2.34375 14.1113 5.95703 21.7773 5.46875C34.5703 4.6875 45.1172 3.41797 60.0098-1.02539C65.625-2.73438 67.5781-5.71289 67.5781-12.793L67.5781-67.5293C67.5781-75.6836 63.3301-79.6875 55.4199-77.7344C45.1172-75.2441 34.5703-73.2422 20.5566-72.3145C14.1113-71.8262 9.76562-68.1152 9.76562-60.7422ZM16.7969-6.10352L16.7969-60.9375C16.7969-64.0625 18.75-65.1855 21.3867-65.3809C34.7168-66.2109 44.9707-68.2129 55.0293-70.6543C58.5449-71.5332 60.5469-69.6289 60.5469-66.2109L60.5469-13.0859C60.5469-9.57031 59.5703-8.05664 56.7383-7.27539C44.9707-3.61328 34.7168-2.34375 22.0703-1.61133C18.75-1.41602 16.7969-3.02734 16.7969-6.10352Z"/>
   <path class="monochrome-3 multicolor-3:tintColor hierarchical-3:primary SFSymbolsPreviewWireframe" d="M40.9668-32.4707C43.8965-33.0566 45.8008-31.7871 45.8008-29.2969C45.8008-26.5137 43.2129-23.877 39.4531-23.0957C34.3262-22.0215 31.2012-24.6582 31.2012-29.1992C31.2012-38.9648 43.8477-44.4824 43.8477-57.4219C43.8477-60.2539 42.8711-61.9629 40.7227-61.5234C36.4258-60.5957 33.3008-55.8594 33.3008-49.8047C33.3008-41.6504 42.2363-24.7559 42.2363-17.2363C42.2363-14.7461 40.918-12.5488 38.9648-12.1582C38.5742-12.0605 38.3301-12.2559 38.3301-12.5977C38.3301-13.1836 38.9648-13.9648 38.9648-15.0391C38.9648-16.7969 37.7441-17.7734 35.8887-17.3828C33.8867-16.9922 32.5684-15.2832 32.5684-13.1836C32.5684-10.3516 35.0098-9.0332 38.623-9.76562C42.1875-10.5469 44.5312-13.8184 44.5312-17.7246C44.5312-24.3164 35.8887-44.1895 35.6445-48.3398C35.4492-52.5879 38.0859-55.6641 40.625-56.1523C41.1621-56.2988 41.4551-56.0547 41.4551-55.4688C41.4551-47.7539 25.1953-42.5781 25.1953-29.6387C25.1953-22.2656 30.8594-18.9941 39.209-20.752C45.9961-22.1191 50.8789-27.3926 50.8789-33.3984C50.8789-38.5254 47.1191-41.1621 42.627-40.2344C37.9883-39.2578 34.082-35.0098 34.082-29.7852C34.082-28.6621 35.1074-28.6621 35.8887-29.3945C37.1582-30.5176 39.0625-32.0801 40.9668-32.4707Z"/>
  </g>
  <g id="Ultralight-S" transform="matrix(1 0 0 1 518.683 696)">
   <path class="monochrome-0 multicolor-0:tintColor hierarchical-0:secondary SFSymbolsPreviewWireframe" d="M72.2916-3.50537L72.2916-64.101C72.2916-70.6308 68.8292-74.1001 62.3062-74.1001L28.3628-74.1001C21.8398-74.1001 18.3774-70.6308 18.3774-64.101L18.3774-3.50537C18.3774 3.02785 21.8398 6.49367 28.3628 6.49367L62.3062 6.49367C68.8292 6.49367 72.2916 3.02785 72.2916-3.50537Z"/>
   <path class="monochrome-1 multicolor-1:tintColor hierarchical-1:primary SFSymbolsPreviewWireframe" d="M6.6865-3.56251C6.6865 2.55569 11.0669 6.60112 17.4419 6.59525C30.521 6.48831 45.9224 5.53665 59.1724 3.30811C65.0562 2.31299 69.1587-1.23146 69.1587-7.70707L69.1587-69.6181C69.1587-76.3863 64.0049-80.3555 57.5039-79.2559C45.2134-77.314 30.2051-75.8638 17.8013-75.7988C11.0146-75.751 6.6865-71.6909 6.6865-65.1015Z"/>
   <path class="monochrome-2 multicolor-2:tintColor hierarchical-2:primary SFSymbolsPreviewWireframe" d="M9.76562-3.56251C9.76562 0.799817 12.7036 3.55031 17.418 3.51613C30.3926 3.41603 45.5713 2.50977 58.6475 0.336903C63.3091-0.463885 66.0796-2.94289 66.0796-7.70707L66.0796-69.6181C66.0796-74.4121 62.7398-77.0537 57.9629-76.2359C45.5713-74.2905 30.3926-72.7881 17.8321-72.7231C12.6582-72.689 9.76562-69.977 9.76562-65.1015ZM11.9834-3.74221L11.9834-65.0244C11.9834-68.5581 14.1182-70.5439 17.9356-70.5122C30.4483-70.5703 45.5156-72.0727 57.8447-74.06C61.4057-74.5757 63.9072-73.0346 63.9072-69.4804L63.9072-7.77299C63.9072-4.21196 61.8862-2.38042 58.4184-1.82621C45.5156 0.246552 30.4483 1.24362 17.5293 1.2949C14.1182 1.30857 11.9834-0.620624 11.9834-3.74221Z"/>
   <path class="monochrome-3 multicolor-3:tintColor hierarchical-3:primary SFSymbolsPreviewWireframe" d="M40.1948-33.833C43.4878-34.3281 45.6646-32.6499 45.6646-29.6602C45.6646-26.332 42.8042-23.6045 38.5903-22.9141C32.9639-22.0215 29.7026-24.9307 29.7026-30.1528C29.7026-41.0083 42.5308-46.0718 42.5308-59.1929C42.5308-61.7978 41.5996-63.3706 39.9507-63.1128C36.1533-62.5029 33.6186-57.7212 33.6186-51.0762C33.6186-42.9219 41.6914-23.3936 41.6914-15.9194C41.6914-13.52 40.4185-11.7315 38.4653-11.4316C37.7114-11.2886 37.0586-11.5747 37.0586-12.3252C37.0586-13.1382 37.7388-13.8286 37.7388-14.812C37.7388-16.3882 36.7905-17.2285 35.2075-16.9741C33.478-16.6743 32.3413-15.2378 32.3413-13.4106C32.3413-10.624 34.6011-9.30566 38.0781-9.85644C41.0977-10.3198 43.169-12.9102 43.169-16.1807C43.169-22.3638 35.1167-44.9614 35.0996-50.9282C35.0859-55.1762 37.1323-58.3432 40.0347-58.8315C40.708-58.9326 41.0918-58.5522 41.0918-57.8755C41.0918-49.1616 24.6958-44.2583 24.6958-31.1372C24.6958-23.9458 29.6787-19.7661 38.3462-21.1606C45.1787-22.2554 49.6983-27.2109 49.6983-33.0352C49.6983-38.2983 46.438-41.2983 41.5371-40.5068C36.7622-39.7573 33.5825-35.6455 33.5825-30.7842C33.5825-30.2515 33.9268-30.206 34.481-30.666C35.7959-31.7891 37.9273-33.4424 40.1948-33.833Z"/>
  </g>
 </g>
</svg>
