<?xml version="1.0" encoding="UTF-8"?>
<!--Generator: Apple Native CoreSVG 341-->
<!DOCTYPE svg
PUBLIC "-//W3C//DTD SVG 1.1//EN"
       "http://www.w3.org/Graphics/SVG/1.1/DTD/svg11.dtd">
<svg version="1.1" xmlns="http://www.w3.org/2000/svg" xmlns:xlink="http://www.w3.org/1999/xlink" viewBox="0 0 3300 2200">
 <!--glyph: "", point size: 100.0, font version: "21.1d1e1", template writer version: "138.0.0"-->
 <style>.defaults {-sfsymbols-variable-value-mode:color;-sfsymbols-draw-reverses-motion-groups:true}

.monochrome-0 {-sfsymbols-motion-group:1;-sfsymbols-layer-tags:-6c4d537d255ce045 _enclosure.fill circle}
.monochrome-1 {opacity:0.0;-sfsymbols-clear-behind:true;-sfsymbols-motion-group:0;-sfsymbols-always-pulses:true;-sfsymbols-layer-tags:-6c4d537d255ce045 4e1857404bf93dd8 cpu}

.multicolor-0:tintColor {-sfsymbols-motion-group:1;-sfsymbols-layer-tags:-6c4d537d255ce045 _enclosure.fill circle}
.multicolor-1:white {-sfsymbols-motion-group:0;-sfsymbols-always-pulses:true;-sfsymbols-layer-tags:-6c4d537d255ce045 4e1857404bf93dd8 cpu}

.hierarchical-0:tertiary {-sfsymbols-motion-group:1;-sfsymbols-layer-tags:-6c4d537d255ce045 _enclosure.fill circle}
.hierarchical-1:primary {-sfsymbols-motion-group:0;-sfsymbols-always-pulses:true;-sfsymbols-layer-tags:-6c4d537d255ce045 4e1857404bf93dd8 cpu}

.SFSymbolsPreviewWireframe {fill:none;opacity:1.0;stroke:black;stroke-width:0.5}
</style>
 <g id="Notes">
  <rect height="2200" id="artboard" style="fill:white;opacity:1" width="3300" x="0" y="0"/>
  <line style="fill:none;stroke:black;opacity:1;stroke-width:0.5;" x1="263" x2="3036" y1="292" y2="292"/>
  <text style="stroke:none;fill:black;font-family:sans-serif;font-size:13;font-weight:bold;" transform="matrix(1 0 0 1 263 322)">Weight/Scale Variations</text>
  <text style="stroke:none;fill:black;font-family:sans-serif;font-size:13;text-anchor:middle;" transform="matrix(1 0 0 1 559.711 322)">Ultralight</text>
  <text style="stroke:none;fill:black;font-family:sans-serif;font-size:13;text-anchor:middle;" transform="matrix(1 0 0 1 856.422 322)">Thin</text>
  <text style="stroke:none;fill:black;font-family:sans-serif;font-size:13;text-anchor:middle;" transform="matrix(1 0 0 1 1153.13 322)">Light</text>
  <text style="stroke:none;fill:black;font-family:sans-serif;font-size:13;text-anchor:middle;" transform="matrix(1 0 0 1 1449.84 322)">Regular</text>
  <text style="stroke:none;fill:black;font-family:sans-serif;font-size:13;text-anchor:middle;" transform="matrix(1 0 0 1 1746.56 322)">Medium</text>
  <text style="stroke:none;fill:black;font-family:sans-serif;font-size:13;text-anchor:middle;" transform="matrix(1 0 0 1 2043.27 322)">Semibold</text>
  <text style="stroke:none;fill:black;font-family:sans-serif;font-size:13;text-anchor:middle;" transform="matrix(1 0 0 1 2339.98 322)">Bold</text>
  <text style="stroke:none;fill:black;font-family:sans-serif;font-size:13;text-anchor:middle;" transform="matrix(1 0 0 1 2636.69 322)">Heavy</text>
  <text style="stroke:none;fill:black;font-family:sans-serif;font-size:13;text-anchor:middle;" transform="matrix(1 0 0 1 2933.4 322)">Black</text>
  <line style="fill:none;stroke:black;opacity:1;stroke-width:0.5;" x1="263" x2="3036" y1="1903" y2="1903"/>
  <g transform="matrix(0.2 0 0 0.2 263 1933)">
   <path d="m46.2402 4.15039c21.7773 0 39.4531-17.627 39.4531-39.4043s-17.6758-39.4043-39.4531-39.4043c-21.7285 0-39.4043 17.627-39.4043 39.4043s17.6758 39.4043 39.4043 39.4043Zm0-7.42188c-17.6758 0-31.9336-14.3066-31.9336-31.9824s14.2578-31.9824 31.9336-31.9824 31.9824 14.3066 31.9824 31.9824-14.3066 31.9824-31.9824 31.9824Zm3.61328-17.7734v-28.4668c0-2.24609-1.46484-3.75977-3.71094-3.75977-2.14844 0-3.61328 1.51367-3.61328 3.75977v28.4668c0 2.19727 1.46484 3.71094 3.61328 3.71094 2.24609 0 3.71094-1.51367 3.71094-3.71094Zm-17.8223-10.5957h28.418c2.19727 0 3.71094-1.46484 3.71094-3.61328 0-2.19727-1.51367-3.71094-3.71094-3.71094h-28.418c-2.24609 0-3.75977 1.51367-3.75977 3.71094 0 2.14844 1.51367 3.61328 3.75977 3.61328Z"/>
  </g>
  <g transform="matrix(0.2 0 0 0.2 281.506 1933)">
   <path d="m58.5449 14.5508c27.4902 0 49.8047-22.3145 49.8047-49.8047s-22.3145-49.8047-49.8047-49.8047-49.8047 22.3145-49.8047 49.8047 22.3145 49.8047 49.8047 49.8047Zm0-8.30078c-22.9492 0-41.5039-18.5547-41.5039-41.5039s18.5547-41.5039 41.5039-41.5039 41.5039 18.5547 41.5039 41.5039-18.5547 41.5039-41.5039 41.5039Zm4.05273-23.0957v-36.9141c0-2.49023-1.70898-4.19922-4.15039-4.19922-2.39258 0-4.05273 1.70898-4.05273 4.19922v36.9141c0 2.44141 1.66016 4.15039 4.05273 4.15039 2.44141 0 4.15039-1.66016 4.15039-4.15039Zm-22.5586-14.4043h36.9629c2.44141 0 4.15039-1.61133 4.15039-4.00391 0-2.44141-1.70898-4.15039-4.15039-4.15039h-36.9629c-2.49023 0-4.15039 1.70898-4.15039 4.15039 0 2.39258 1.66016 4.00391 4.15039 4.00391Z"/>
  </g>
  <g transform="matrix(0.2 0 0 0.2 304.924 1933)">
   <path d="m74.8535 28.3203c35.1074 0 63.623-28.4668 63.623-63.5742s-28.5156-63.623-63.623-63.623-63.5742 28.5156-63.5742 63.623 28.4668 63.5742 63.5742 63.5742Zm0-9.08203c-30.127 0-54.4922-24.3652-54.4922-54.4922s24.3652-54.4922 54.4922-54.4922 54.4922 24.3652 54.4922 54.4922-24.3652 54.4922-54.4922 54.4922Zm4.44336-30.3223v-48.4863c0-2.73438-1.85547-4.63867-4.54102-4.63867-2.58789 0-4.44336 1.9043-4.44336 4.63867v48.4863c0 2.68555 1.85547 4.58984 4.44336 4.58984 2.68555 0 4.54102-1.85547 4.54102-4.58984Zm-28.7109-19.7754h48.4863c2.68555 0 4.58984-1.80664 4.58984-4.39453 0-2.73438-1.85547-4.58984-4.58984-4.58984h-48.4863c-2.73438 0-4.58984 1.85547-4.58984 4.58984 0 2.58789 1.85547 4.39453 4.58984 4.39453Z"/>
  </g>
  <text style="stroke:none;fill:black;font-family:sans-serif;font-size:13;font-weight:bold;" transform="matrix(1 0 0 1 263 1953)">Design Variations</text>
  <text style="stroke:none;fill:black;font-family:sans-serif;font-size:13;" transform="matrix(1 0 0 1 263 1971)">Symbols are supported in up to nine weights and three scales.</text>
  <text style="stroke:none;fill:black;font-family:sans-serif;font-size:13;" transform="matrix(1 0 0 1 263 1989)">For optimal layout with text and other symbols, vertically align</text>
  <text style="stroke:none;fill:black;font-family:sans-serif;font-size:13;" transform="matrix(1 0 0 1 263 2007)">symbols with the adjacent text.</text>
  <line style="fill:none;stroke:#00AEEF;stroke-width:0.5;opacity:1.0;" x1="776" x2="776" y1="1919" y2="1933"/>
  <g transform="matrix(0.2 0 0 0.2 776 1933)">
   <path d="m16.5527 0.78125c2.58789 0 3.85742-0.976562 4.78516-3.71094l20.5566-57.5195h0.244141l20.6055 57.5195c0.927734 2.73438 2.19727 3.71094 4.73633 3.71094 2.58789 0 4.24805-1.5625 4.24805-4.00391 0-0.830078-0.146484-1.61133-0.537109-2.63672l-22.9004-60.9863c-1.12305-2.97852-3.125-4.49219-6.25-4.49219-3.02734 0-5.07812 1.46484-6.15234 4.44336l-22.9004 61.084c-0.390625 1.02539-0.537109 1.80664-0.537109 2.63672 0 2.44141 1.5625 3.95508 4.10156 3.95508Zm10.2051-20.9473h30.6641c2.00195 0 3.66211-1.66016 3.66211-3.66211 0-2.05078-1.66016-3.66211-3.66211-3.66211h-30.6641c-2.00195 0-3.66211 1.61133-3.66211 3.66211 0 2.00195 1.66016 3.66211 3.66211 3.66211Z"/>
  </g>
  <line style="fill:none;stroke:#00AEEF;stroke-width:0.5;opacity:1.0;" x1="792.836" x2="792.836" y1="1919" y2="1933"/>
  <text style="stroke:none;fill:black;font-family:sans-serif;font-size:13;font-weight:bold;" transform="matrix(1 0 0 1 776 1953)">Margins</text>
  <text style="stroke:none;fill:black;font-family:sans-serif;font-size:13;" transform="matrix(1 0 0 1 776 1971)">Leading and trailing margins on the left and right side of each symbol</text>
  <text style="stroke:none;fill:black;font-family:sans-serif;font-size:13;" transform="matrix(1 0 0 1 776 1989)">can be adjusted by modifying the x-location of the margin guidelines.</text>
  <text style="stroke:none;fill:black;font-family:sans-serif;font-size:13;" transform="matrix(1 0 0 1 776 2007)">Modifications are automatically applied proportionally to all</text>
  <text style="stroke:none;fill:black;font-family:sans-serif;font-size:13;" transform="matrix(1 0 0 1 776 2025)">scales and weights.</text>
  <g transform="matrix(0.2 0 0 0.2 1289 1933)">
   <path d="m14.209 13.1348 7.86133 7.86133c4.29688 4.39453 9.32617 4.10156 13.8672-1.02539l60.6934-68.2129-4.88281-4.88281-60.2539 67.6758c-1.80664 1.95312-3.4668 2.44141-5.81055 0.0976562l-5.17578-5.12695c-2.29492-2.29492-1.80664-3.95508 0.195312-5.81055l67.4805-62.1582-4.88281-4.83398-68.0664 62.5977c-4.98047 4.58984-5.32227 9.47266-1.02539 13.8184Zm44.873-97.4609c-2.05078 2.00195-2.24609 4.88281-1.07422 6.78711 1.12305 1.80664 3.4668 3.02734 6.5918 2.24609 5.85938-1.66016 12.5977-2.39258 18.8965 0.927734l-2.68555 7.12891c-1.61133 4.00391-0.732422 6.88477 1.70898 9.42383l10.2539 10.3027c2.34375 2.39258 4.54102 2.44141 7.08008 1.95312l4.44336-0.732422 2.58789 2.53906-0.195312 2.24609c-0.0976562 2.29492 0.537109 4.29688 2.7832 6.49414l3.36914 3.32031c2.29492 2.29492 5.51758 2.49023 7.8125 0.195312l12.9883-13.0371c2.29492-2.34375 2.14844-5.37109-0.195312-7.66602l-3.41797-3.41797c-2.19727-2.19727-4.05273-3.02734-6.34766-2.88086l-2.34375 0.244141-2.44141-2.44141 1.02539-4.6875c0.634766-2.73438-0.244141-4.98047-2.88086-7.61719l-11.2793-11.1816c-12.9395-12.8418-35.5957-11.0352-46.6797-0.146484Zm7.08008 2.05078c8.78906-6.39648 25.9766-5.66406 33.6914 1.95312l12.3047 12.207c1.02539 1.02539 1.2207 1.80664 0.927734 3.32031l-1.46484 6.64062 6.73828 6.68945 4.39453-0.244141c1.12305-0.0488281 1.51367 0.0488281 2.34375 0.878906l2.53906 2.49023-10.8398 10.8398-2.49023-2.49023c-0.830078-0.878906-0.976562-1.2207-0.927734-2.39258l0.292969-4.3457-6.68945-6.73828-6.83594 1.17188c-1.41602 0.292969-2.05078 0.195312-3.17383-0.878906l-8.93555-8.88672c-1.07422-1.02539-1.17188-1.70898-0.488281-3.36914l4.58984-11.4746c-6.10352-6.34766-17.041-7.51953-25.5859-4.58984-0.683594 0.244141-0.927734-0.390625-0.390625-0.78125Z"/>
  </g>
  <text style="stroke:none;fill:black;font-family:sans-serif;font-size:13;font-weight:bold;" transform="matrix(1 0 0 1 1289 1953)">Exporting</text>
  <text style="stroke:none;fill:black;font-family:sans-serif;font-size:13;" transform="matrix(1 0 0 1 1289 1971)">Symbols should be outlined when exporting to ensure the</text>
  <text style="stroke:none;fill:black;font-family:sans-serif;font-size:13;" transform="matrix(1 0 0 1 1289 1989)">design is preserved when submitting to Xcode.</text>
  <text id="template-version" style="stroke:none;fill:black;font-family:sans-serif;font-size:13;text-anchor:end;" transform="matrix(1 0 0 1 3036 1933)">Template v.7.0</text>
  <text style="stroke:none;fill:black;font-family:sans-serif;font-size:13;text-anchor:end;" transform="matrix(1 0 0 1 3036 1951)">Requires Xcode 26 or greater</text>
  <text id="descriptive-name" style="stroke:none;fill:black;font-family:sans-serif;font-size:13;text-anchor:end;" transform="matrix(1 0 0 1 3036 1969)">Generated from circle.fill</text>
  <text style="stroke:none;fill:black;font-family:sans-serif;font-size:13;text-anchor:end;" transform="matrix(1 0 0 1 3036 1987)">Typeset at 100.0 points</text>
  <text style="stroke:none;fill:black;font-family:sans-serif;font-size:13;" transform="matrix(1 0 0 1 263 726)">Small</text>
  <text style="stroke:none;fill:black;font-family:sans-serif;font-size:13;" transform="matrix(1 0 0 1 263 1156)">Medium</text>
  <text style="stroke:none;fill:black;font-family:sans-serif;font-size:13;" transform="matrix(1 0 0 1 263 1586)">Large</text>
 </g>
 <g id="Guides">
  <g id="H-reference" style="fill:#27AAE1;stroke:none;" transform="matrix(1 0 0 1 339 696)">
   <path d="M0.993654 0L3.63775 0L29.3281-67.1323L30.0303-67.1323L30.0303-70.459L28.1226-70.459ZM11.6885-24.4799L46.9815-24.4799L46.2315-26.7285L12.4385-26.7285ZM55.1196 0L57.7637 0L30.6382-70.459L29.4326-70.459L29.4326-67.1323Z"/>
  </g>
  <line id="Baseline-S" style="fill:none;stroke:#27AAE1;opacity:1;stroke-width:0.5;" x1="263" x2="3036" y1="696" y2="696"/>
  <line id="Capline-S" style="fill:none;stroke:#27AAE1;opacity:1;stroke-width:0.5;" x1="263" x2="3036" y1="625.541" y2="625.541"/>
  <g id="H-reference" style="fill:#27AAE1;stroke:none;" transform="matrix(1 0 0 1 339 1126)">
   <path d="M0.993654 0L3.63775 0L29.3281-67.1323L30.0303-67.1323L30.0303-70.459L28.1226-70.459ZM11.6885-24.4799L46.9815-24.4799L46.2315-26.7285L12.4385-26.7285ZM55.1196 0L57.7637 0L30.6382-70.459L29.4326-70.459L29.4326-67.1323Z"/>
  </g>
  <line id="Baseline-M" style="fill:none;stroke:#27AAE1;opacity:1;stroke-width:0.5;" x1="263" x2="3036" y1="1126" y2="1126"/>
  <line id="Capline-M" style="fill:none;stroke:#27AAE1;opacity:1;stroke-width:0.5;" x1="263" x2="3036" y1="1055.54" y2="1055.54"/>
  <g id="H-reference" style="fill:#27AAE1;stroke:none;" transform="matrix(1 0 0 1 339 1556)">
   <path d="M0.993654 0L3.63775 0L29.3281-67.1323L30.0303-67.1323L30.0303-70.459L28.1226-70.459ZM11.6885-24.4799L46.9815-24.4799L46.2315-26.7285L12.4385-26.7285ZM55.1196 0L57.7637 0L30.6382-70.459L29.4326-70.459L29.4326-67.1323Z"/>
  </g>
  <line id="Baseline-L" style="fill:none;stroke:#27AAE1;opacity:1;stroke-width:0.5;" x1="263" x2="3036" y1="1556" y2="1556"/>
  <line id="Capline-L" style="fill:none;stroke:#27AAE1;opacity:1;stroke-width:0.5;" x1="263" x2="3036" y1="1485.54" y2="1485.54"/>
  <line id="right-margin-Black-S" style="fill:none;stroke:#00AEEF;stroke-width:0.5;opacity:1.0;" x1="2982.23" x2="2982.23" y1="600.785" y2="720.121"/>
  <line id="left-margin-Black-S" style="fill:none;stroke:#00AEEF;stroke-width:0.5;opacity:1.0;" x1="2884.57" x2="2884.57" y1="600.785" y2="720.121"/>
  <line id="right-margin-Regular-S" style="fill:none;stroke:#00AEEF;stroke-width:0.5;opacity:1.0;" x1="1496.11" x2="1496.11" y1="600.785" y2="720.121"/>
  <line id="left-margin-Regular-S" style="fill:none;stroke:#00AEEF;stroke-width:0.5;opacity:1.0;" x1="1403.58" x2="1403.58" y1="600.785" y2="720.121"/>
  <line id="right-margin-Ultralight-S" style="fill:none;stroke:#00AEEF;stroke-width:0.5;opacity:1.0;" x1="603.773" x2="603.773" y1="600.785" y2="720.121"/>
  <line id="left-margin-Ultralight-S" style="fill:none;stroke:#00AEEF;stroke-width:0.5;opacity:1.0;" x1="515.649" x2="515.649" y1="600.785" y2="720.121"/>
 </g>
 <g id="Symbols">
  <g id="Black-S" transform="matrix(1 0 0 1 2884.57 696)">
   <path class="monochrome-0 multicolor-0:tintColor hierarchical-0:tertiary SFSymbolsPreviewWireframe" d="M48.8281 6.73828C72.0215 6.73828 90.8203-12.0605 90.8203-35.2539C90.8203-58.4473 72.0215-77.2461 48.8281-77.2461C25.6348-77.2461 6.83594-58.4473 6.83594-35.2539C6.83594-12.0605 25.6348 6.73828 48.8281 6.73828Z"/>
   <path class="monochrome-1 multicolor-1:white hierarchical-1:primary SFSymbolsPreviewWireframe" d="M27.8305-28.662C27.8305-27.283 28.9746-26.1343 30.3551-26.1343L31.8781-26.1343L31.8781-20.6652C31.8781-19.2311 32.8382-18.2665 34.2723-18.2665L39.723-18.2665L39.723-16.7465C39.723-15.3676 40.8672-14.2234 42.2477-14.2234C43.6251-14.2234 44.7723-15.3676 44.7723-16.7465L44.7723-18.2665L46.3042-18.2665L46.3042-16.7465C46.3042-15.3676 47.4484-14.2234 48.8289-14.2234C50.2078-14.2234 51.352-15.3676 51.352-16.7465L51.352-18.2665L52.887-18.2665L52.887-16.7465C52.887-15.3676 54.0311-14.2234 55.4116-14.2234C56.7891-14.2234 57.9363-15.3676 57.9363-16.7465L57.9363-18.2665L63.3839-18.2665C64.8181-18.2665 65.7812-19.2311 65.7812-20.6652L65.7812-26.1328L67.3011-26.1328C68.6816-26.1328 69.8258-27.2815 69.8258-28.6605C69.8258-30.0379 68.6816-31.1851 67.3011-31.1851L65.7812-31.1851L65.7812-32.7171L67.3011-32.7171C68.6816-32.7171 69.8258-33.8612 69.8258-35.2417C69.8258-36.6221 68.6816-37.7663 67.3011-37.7663L65.7812-37.7663L65.7812-39.2983L67.3011-39.2983C68.6816-39.2983 69.8258-40.4455 69.8258-41.8229C69.8258-43.2019 68.6816-44.3506 67.3011-44.3506L65.7812-44.3506L65.7812-49.7753C65.7812-51.2095 64.8181-52.1741 63.3839-52.1741L57.9363-52.1741L57.9363-53.694C57.9363-55.0731 56.7891-56.2187 55.4116-56.2187C54.0311-56.2187 52.887-55.0731 52.887-53.694L52.887-52.1741L51.352-52.1741L51.352-53.694C51.352-55.0731 50.2078-56.2187 48.8289-56.2187C47.4484-56.2187 46.3042-55.0731 46.3042-53.694L46.3042-52.1741L44.7723-52.1741L44.7723-53.694C44.7723-55.0731 43.6251-56.2187 42.2477-56.2187C40.8672-56.2187 39.723-55.0731 39.723-53.694L39.723-52.1741L34.2723-52.1741C32.8382-52.1741 31.8781-51.2095 31.8781-49.7753L31.8781-44.3506L30.3551-44.3506C28.9746-44.3506 27.8305-43.2034 27.8305-41.8244C27.8305-40.447 28.9746-39.2998 30.3551-39.2998L31.8781-39.2998L31.8781-37.7678L30.3551-37.7678C28.9746-37.7678 27.8305-36.6236 27.8305-35.2432C27.8305-33.8627 28.9746-32.7186 30.3551-32.7186L31.8781-32.7186L31.8781-31.1866L30.3551-31.1866C28.9746-31.1866 27.8305-30.0394 27.8305-28.662ZM39.6447-26.8226L39.6447-43.618C39.6447-44.0541 39.9936-44.403 40.4312-44.403L57.225-44.403C57.6626-44.403 58.0116-44.0541 58.0116-43.618L58.0116-26.8226C58.0116-26.3865 57.6626-26.0376 57.225-26.0376L40.4312-26.0376C39.9936-26.0376 39.6447-26.3865 39.6447-26.8226ZM43.368-28.4538L54.2928-28.4538C55.115-28.4538 55.6518-28.992 55.6518-29.8158L55.6518-40.6827C55.6518-41.5065 55.115-42.0447 54.2928-42.0447L43.368-42.0447C42.5412-42.0447 42.0045-41.5065 42.0045-40.6827L42.0045-29.8158C42.0045-28.992 42.5412-28.4538 43.368-28.4538ZM46.7487-33.5003L46.7487-36.9981C46.7487-37.1844 46.8632-37.299 47.0496-37.299L50.6067-37.299C50.796-37.299 50.9106-37.1844 50.9106-36.9981L50.9106-33.5003C50.9106-33.314 50.796-33.1995 50.6067-33.1995L47.0496-33.1995C46.8632-33.1995 46.7487-33.314 46.7487-33.5003Z"/>
  </g>
  <g id="Regular-S" transform="matrix(1 0 0 1 1403.58 696)">
   <path class="monochrome-0 multicolor-0:tintColor hierarchical-0:tertiary SFSymbolsPreviewWireframe" d="M46.2402 4.15039C68.0176 4.15039 85.6934-13.5254 85.6934-35.2539C85.6934-56.9824 68.0176-74.6582 46.2402-74.6582C24.5117-74.6582 6.83594-56.9824 6.83594-35.2539C6.83594-13.5254 24.5117 4.15039 46.2402 4.15039Z"/>
   <path class="monochrome-1 multicolor-1:white hierarchical-1:primary SFSymbolsPreviewWireframe" d="M26.0042-28.8624C26.0042-27.6481 26.9024-26.7622 28.1028-26.7622L29.8101-26.7622L29.8101-20.7515C29.8101-19.5619 30.6151-18.7692 31.8046-18.7692L37.7943-18.7692L37.7943-17.0635C37.7943-15.8492 38.6924-14.951 39.8929-14.951C41.0916-14.951 41.9915-15.8492 41.9915-17.0635L41.9915-18.7692L44.1596-18.7692L44.1596-17.0635C44.1596-15.8492 45.0578-14.951 46.2582-14.951C47.4725-14.951 48.3707-15.8492 48.3707-17.0635L48.3707-18.7692L50.5405-18.7692L50.5405-17.0635C50.5405-15.8492 51.4386-14.951 52.6391-14.951C53.8379-14.951 54.7377-15.8492 54.7377-17.0635L54.7377-18.7692L60.7256-18.7692C61.9152-18.7692 62.7218-19.5619 62.7218-20.7515L62.7218-26.7761L64.4275-26.7761C65.6279-26.7761 66.5261-27.662 66.5261-28.8763C66.5261-30.0751 65.6279-30.975 64.4275-30.975L62.7218-30.975L62.7218-33.1431L64.4275-33.1431C65.6279-33.1431 66.5261-34.0413 66.5261-35.2417C66.5261-36.4421 65.6279-37.3403 64.4275-37.3403L62.7218-37.3403L62.7218-39.5085L64.4275-39.5085C65.6279-39.5085 66.5261-40.4083 66.5261-41.6071C66.5261-42.8214 65.6279-43.7073 64.4275-43.7073L62.7218-43.7073L62.7218-49.6864C62.7218-50.8759 61.9152-51.6686 60.7256-51.6686L54.7377-51.6686L54.7377-53.3743C54.7377-54.5886 53.8379-55.4729 52.6391-55.4729C51.4386-55.4729 50.5405-54.5886 50.5405-53.3743L50.5405-51.6686L48.3707-51.6686L48.3707-53.3743C48.3707-54.5886 47.4725-55.4729 46.2582-55.4729C45.0578-55.4729 44.1596-54.5886 44.1596-53.3743L44.1596-51.6686L41.9915-51.6686L41.9915-53.3743C41.9915-54.5886 41.0916-55.4729 39.8929-55.4729C38.6924-55.4729 37.7943-54.5886 37.7943-53.3743L37.7943-51.6686L31.8046-51.6686C30.6151-51.6686 29.8101-50.8759 29.8101-49.6864L29.8101-43.7073L28.1028-43.7073C26.9024-43.7073 26.0042-42.8075 26.0042-41.5931C26.0042-40.3943 26.9024-39.4945 28.1028-39.4945L29.8101-39.4945L29.8101-37.3264L28.1028-37.3264C26.9024-37.3264 26.0042-36.4282 26.0042-35.2278C26.0042-34.0274 26.9024-33.1292 28.1028-33.1292L29.8101-33.1292L29.8101-30.961L28.1028-30.961C26.9024-30.961 26.0042-30.0612 26.0042-28.8624ZM35.1616-24.7956L35.1616-45.6422C35.1616-46.098 35.393-46.3294 35.8349-46.3294L56.6954-46.3294C57.1373-46.3294 57.3687-46.098 57.3687-45.6422L57.3687-24.7956C57.3687-24.3398 57.1373-24.1084 56.6954-24.1084L35.8349-24.1084C35.393-24.1084 35.1616-24.3398 35.1616-24.7956ZM40.0399-27.535L52.4781-27.535C53.4546-27.535 53.9802-28.0468 53.9802-29.0388L53.9802-41.4233C53.9802-42.4153 53.4546-42.927 52.4781-42.927L40.0399-42.927C39.0757-42.927 38.55-42.4153 38.55-41.4233L38.55-29.0388C38.55-28.0468 39.0757-27.535 40.0399-27.535ZM42.2123-31.5948L42.2123-38.8672C42.2123-39.1165 42.3745-39.2787 42.6238-39.2787L49.9065-39.2787C50.1575-39.2787 50.3196-39.1165 50.3196-38.8672L50.3196-31.5948C50.3196-31.3455 50.1575-31.1834 49.9065-31.1834L42.6238-31.1834C42.3745-31.1834 42.2123-31.3455 42.2123-31.5948Z"/>
  </g>
  <g id="Ultralight-S" transform="matrix(1 0 0 1 515.649 696)">
   <path class="monochrome-0 multicolor-0:tintColor hierarchical-0:tertiary SFSymbolsPreviewWireframe" d="M44.0606 1.97072C64.521 1.97072 81.2886-14.7969 81.2886-35.2539C81.2886-55.7109 64.521-72.4785 44.0606-72.4785C23.6035-72.4785 6.83594-55.7109 6.83594-35.2539C6.83594-14.7969 23.6035 1.97072 44.0606 1.97072Z"/>
   <path class="monochrome-1 multicolor-1:white hierarchical-1:primary SFSymbolsPreviewWireframe" d="M25.8577-28.632C25.8577-28.047 26.2779-27.6512 26.8528-27.6512L29.0537-27.6512L29.0537-21.3842C29.0537-20.6567 29.5214-20.2134 30.249-20.2134L36.4627-20.2134L36.4627-17.9981C36.4627-17.4132 36.883-16.993 37.4578-16.993C38.0472-16.993 38.453-17.4132 38.453-17.9981L38.453-20.2134L43.0625-20.2134L43.0625-17.9981C43.0625-17.4132 43.4827-16.993 44.0576-16.993C44.6425-16.993 45.0627-17.4132 45.0627-17.9981L45.0627-20.2134L49.6578-20.2134L49.6578-17.9981C49.6578-17.4132 50.078-16.993 50.653-16.993C51.2423-16.993 51.6481-17.4132 51.6481-17.9981L51.6481-20.2134L57.8763-20.2134C58.6038-20.2134 59.0572-20.6567 59.0572-21.3842L59.0572-27.6612L61.2724-27.6612C61.8473-27.6612 62.2675-28.057 62.2675-28.642C62.2675-29.2313 61.8473-29.6371 61.2724-29.6371L59.0572-29.6371L59.0572-34.2466L61.2724-34.2466C61.8473-34.2466 62.2675-34.6668 62.2675-35.2417C62.2675-35.8166 61.8473-36.2368 61.2724-36.2368L59.0572-36.2368L59.0572-40.8463L61.2724-40.8463C61.8473-40.8463 62.2675-41.2521 62.2675-41.8414C62.2675-42.4264 61.8473-42.8222 61.2724-42.8222L59.0572-42.8222L59.0572-49.0216C59.0572-49.7491 58.6038-50.1924 57.8763-50.1924L51.6481-50.1924L51.6481-52.4077C51.6481-52.9926 51.2423-53.4028 50.653-53.4028C50.078-53.4028 49.6578-52.9926 49.6578-52.4077L49.6578-50.1924L45.0627-50.1924L45.0627-52.4077C45.0627-52.9926 44.6425-53.4028 44.0576-53.4028C43.4827-53.4028 43.0625-52.9926 43.0625-52.4077L43.0625-50.1924L38.453-50.1924L38.453-52.4077C38.453-52.9926 38.0472-53.4028 37.4578-53.4028C36.883-53.4028 36.4627-52.9926 36.4627-52.4077L36.4627-50.1924L30.249-50.1924C29.5214-50.1924 29.0537-49.7491 29.0537-49.0216L29.0537-42.8222L26.8528-42.8222C26.2779-42.8222 25.8577-42.4164 25.8577-41.8314C25.8577-41.2421 26.2779-40.8363 26.8528-40.8363L29.0537-40.8363L29.0537-36.2268L26.8528-36.2268C26.2779-36.2268 25.8577-35.8066 25.8577-35.2317C25.8577-34.6568 26.2779-34.2366 26.8528-34.2366L29.0537-34.2366L29.0537-29.6271L26.8528-29.6271C26.2779-29.6271 25.8577-29.2213 25.8577-28.632ZM31.0539-22.6557L31.0539-47.7501C31.0539-48.0701 31.2004-48.2166 31.5103-48.2166L56.6149-48.2166C56.9248-48.2166 57.0713-48.0701 57.0713-47.7501L57.0713-22.6557C57.0713-22.3357 56.9248-22.1892 56.6149-22.1892L31.5103-22.1892C31.2004-22.1892 31.0539-22.3357 31.0539-22.6557ZM36.1812-26.1957L51.9196-26.1957C52.6773-26.1957 53.0748-26.5833 53.0748-27.3365L53.0748-43.0693C53.0748-43.8226 52.6773-44.2101 51.9196-44.2101L36.1812-44.2101C35.448-44.2101 35.0504-43.8226 35.0504-43.0693L35.0504-27.3365C35.0504-26.5833 35.448-26.1957 36.1812-26.1957ZM36.76-28.3116L36.76-42.0942C36.76-42.344 36.9265-42.5105 37.1763-42.5105L50.9489-42.5105C51.1843-42.5105 51.3509-42.344 51.3509-42.0942L51.3509-28.3116C51.3509-28.0618 51.1843-27.8953 50.9489-27.8953L37.1763-27.8953C36.9265-27.8953 36.76-28.0618 36.76-28.3116Z"/>
  </g>
 </g>
</svg>
