<?xml version="1.0" encoding="UTF-8"?>
<svg id="Layer_2" data-name="Layer 2" xmlns="http://www.w3.org/2000/svg" viewBox="0 0 1024 1024">
  <defs>
    <style>
      .cls-1 {
        fill: #fff;
      }
    </style>
  </defs>
  <g id="_4_Layer" data-name="4 – Layer">
    <g>
      <path class="cls-1" d="M683.48,579.71c-7.86,0-14.12,6.27-14.12,13.92v65.99h-47.23c-7.86,0-14.34,6.27-14.34,14.03s6.27,14.13,14.34,14.13h61.36c8.08,0,14.25-6.17,14.25-14.13v-80.02c0-7.65-6.27-13.92-14.25-13.92Z"/>
      <path class="cls-1" d="M512.9,220.69c-6.06-16.08-22.35-26.53-43.12-26.53s-37.17,10.45-43.23,26.52c13.1-1.25,27.53-1.76,43.12-1.76s30.09.52,43.23,1.77Z"/>
      <path class="cls-1" d="M0,0v1024h1024V0H0ZM545.36,778.15h-151.28c-85.22,0-126.69-42.53-126.05-128.71.96-99.5,1.61-171.99,4.05-226.22,5.65-127.12,34.99-181.72,122.1-198.28,4.82-35.95,35.16-61.47,75.59-61.47s70.92,25.54,75.7,61.54c86.92,16.62,116.34,71.25,121.98,198.21,1.14,25.44,1.9,54.89,2.46,89.46-31.53,2.39-60.55,14.43-84.11,33.17v-25.18c0-20.82-13.66-34.69-34.57-34.69h-162.93c-21.12,0-34.57,13.87-34.57,34.69v31.4h224.71c-8.93,7.73-16.87,16.56-23.65,26.27h-201.07v67.26c0,20.81,13.45,34.69,34.57,34.69h137.74c2.55,37.28,18.44,71.03,42.92,96.52-7.36.93-15.28,1.34-23.6,1.34ZM682.32,794.66c-68.96,0-125.86-56.47-125.86-125.75s56.9-125.75,125.86-125.75,125.97,56.67,125.97,125.75-57.54,125.75-125.97,125.75Z"/>
    </g>
  </g>
</svg>