<?xml version="1.0" encoding="UTF-8"?>
<svg width="1920px" height="1920px" viewBox="0 0 1920 1920" version="1.1" xmlns="http://www.w3.org/2000/svg" xmlns:xlink="http://www.w3.org/1999/xlink">
    <title>Exported image</title>
    <g id="Symbols" stroke="none" stroke-width="1" fill="none" fill-rule="evenodd">
        <g id="custom.graduationcap.fill.badge.clock" fill="#FFFFFF" transform="translate(40.903, 204.942)">
            <g id="Exported-image" transform="translate(0.097, 0.058)">
                <path d="M526.915695,959.02581 L526.915695,1005.39508 C548.116943,1011.89685 560.71067,1030.00248 560.71067,1055.3513 L560.71067,1171.29064 C560.71067,1203.67938 540.393961,1224 508.007784,1224 L496.134623,1224 C463.940134,1224 443.429427,1203.67938 443.429427,1171.29064 L443.429427,1055.3513 C443.429427,1029.88469 456.261032,1011.73055 477.593923,1005.30038 L477.593923,920.583385 C491.591828,934.928849 507.973141,947.431183 526.915695,959.02581 Z M1243.29388,701.537315 C1164.92547,749.484102 1112.26646,835.97725 1112.26646,933.635424 C1112.26646,945.659653 1113.05632,957.510656 1114.86004,969.049851 C1044.43864,1006.92871 946.896726,1030.94484 829.100463,1030.94484 C701.869877,1030.94484 598.685848,1002.64655 526.915695,959.02581 L526.915695,695.804673 L690.763471,770.857943 C740.667238,793.860113 785.885021,805.353114 829.100463,804.79648 C872.126527,805.353114 917.34431,793.860113 967.245767,770.857943 L1243.29388,644.1416 L1243.29388,701.537315 Z M477.593923,673.536983 L477.593923,920.583385 C436.84734,881.819912 414.715361,836.42533 414.715361,799.160844 L414.715361,644.698235 L477.593923,673.536983 Z M944.543341,221.88606 L1374.67926,418.679221 C1399.97757,430.135268 1412.73527,451.012526 1412.73527,472.099966 C1412.73527,493.011869 1399.97757,513.159266 1374.67926,524.788539 L944.543341,722.139721 C899.584222,742.947689 864.343498,751.463504 829.100463,750.904559 C793.66805,751.463504 758.619014,742.947689 713.468207,722.139721 L528.377611,637.108604 L787.206057,513.175434 C800.213185,517.094973 814.90856,519.148284 830.564689,519.148284 C877.960334,519.148284 920.877851,497.975386 920.877851,471.908262 C920.877851,446.416249 877.960334,425.608282 830.564689,425.608282 C782.610144,425.608282 739.498629,446.416249 739.498629,471.908262 C739.498629,475.670741 741.032139,479.814319 744.637276,483.941729 L475.764796,612.436531 L283.332286,524.788539 C258.033977,513.159266 245.271656,493.011869 245.271656,472.099966 C245.271656,451.012526 258.033977,430.135268 283.332286,418.679221 L713.468207,221.88606 C758.427325,201.442561 793.66805,192.562046 829.100463,193.120067 C864.343498,192.562046 899.584222,201.442561 944.543341,221.88606 Z" id="Shape" fill-rule="nonzero"></path>
                <path d="M1603.92989,933.635424 C1603.92989,1053.35342 1503.90757,1152.26113 1384.95194,1152.26113 C1265.07019,1152.26113 1166.15182,1054.08328 1166.15182,933.635424 C1166.15182,813.744206 1265.07019,715.009718 1384.95194,715.009718 C1505.20089,715.009718 1603.92989,813.552502 1603.92989,933.635424 Z M1362.40425,802.754717 L1362.40425,917.495333 L1280.30368,917.495333 C1266.63604,917.495333 1255.37027,928.397055 1255.37027,941.874077 C1255.37027,955.558971 1266.27113,966.458382 1280.30368,966.458382 L1386.97044,966.458382 C1401.0053,966.458382 1411.72833,955.734507 1411.72833,941.874077 L1411.72833,802.754717 C1411.72833,789.450921 1400.82978,778.5492 1386.97044,778.5492 C1373.3028,778.5492 1362.40425,789.450921 1362.40425,802.754717 Z" id="Shape" fill-rule="nonzero"></path>
            </g>
        </g>
    </g>
</svg>