<?xml version="1.0" encoding="UTF-8"?>
<svg id="Layer_2" data-name="Layer 2" xmlns="http://www.w3.org/2000/svg" viewBox="0 0 1029.66 1029.66">
  <defs>
    <style>
      .cls-1 {
        opacity: .45;
      }
    </style>
  </defs>
  <g id="_4_Layer" data-name="4 – Layer">
    <g id="Grid" class="cls-1">
      <g id="SUBDIVISIONS_copy" data-name="SUBDIVISIONS copy">
        <rect x="-209.25" y="510.83" width="1448.15" height="8" transform="translate(-213.25 514.89) rotate(-45)"/>
        <rect x="510.83" y="-209.25" width="8" height="1448.15" transform="translate(-213.25 514.83) rotate(-45)"/>
        <rect x="510.83" y="2.83" width="8" height="1024"/>
        <rect x="2.83" y="510.83" width="1024" height="8"/>
        <rect x="510.83" y="2.83" width="8" height="1024"/>
        <rect x="2.83" y="510.83" width="1024" height="8"/>
        <rect x="2.83" y="638.83" width="1024" height="8"/>
        <rect x="2.83" y="766.83" width="1024" height="8"/>
        <rect x="2.83" y="894.83" width="1024" height="8"/>
        <rect x="2.83" y="382.83" width="1024" height="8"/>
        <rect x="2.83" y="254.83" width="1024" height="8"/>
        <rect x="2.83" y="126.83" width="1024" height="8"/>
        <rect x="510.83" y="2.83" width="8" height="1024"/>
        <rect x="510.83" y="2.83" width="8" height="1024"/>
        <rect x="382.83" y="2.83" width="8" height="1024"/>
        <rect x="254.83" y="2.83" width="8" height="1024"/>
        <rect x="126.83" y="2.83" width="8" height="1024"/>
        <rect x="638.83" y="2.83" width="8" height="1024"/>
        <rect x="766.83" y="2.83" width="8" height="1024"/>
        <rect x="894.83" y="2.83" width="8" height="1024"/>
      </g>
      <g id="CIRCLES">
        <path d="M514.83,928.83c-55.89,0-110.11-10.95-161.15-32.54-49.3-20.85-93.57-50.7-131.59-88.72-38.02-38.02-67.87-82.29-88.72-131.59-21.59-51.04-32.54-105.26-32.54-161.15s10.95-110.11,32.54-161.15c20.85-49.3,50.7-93.57,88.72-131.59,38.02-38.02,82.29-67.87,131.59-88.72,51.04-21.59,105.26-32.54,161.15-32.54s110.11,10.95,161.15,32.54c49.3,20.85,93.57,50.7,131.59,88.72,38.02,38.02,67.87,82.29,88.72,131.59,21.59,51.04,32.54,105.26,32.54,161.15s-10.95,110.11-32.54,161.15c-20.85,49.3-50.7,93.57-88.72,131.59s-82.29,67.87-131.59,88.72c-51.04,21.59-105.26,32.54-161.15,32.54ZM514.83,108.83c-54.81,0-107.98,10.73-158.03,31.9-48.35,20.45-91.77,49.72-129.05,87.01s-66.56,80.71-87.01,129.05c-21.17,50.05-31.9,103.22-31.9,158.03s10.73,107.98,31.9,158.03c20.45,48.35,49.72,91.77,87.01,129.05,37.29,37.29,80.71,66.56,129.05,87.01,50.05,21.17,103.22,31.9,158.03,31.9s107.98-10.73,158.03-31.9c48.35-20.45,91.77-49.72,129.05-87.01,37.29-37.29,66.56-80.71,87.01-129.05,21.17-50.05,31.9-103.22,31.9-158.03s-10.73-107.98-31.9-158.03c-20.45-48.35-49.72-91.77-87.01-129.05-37.29-37.29-80.71-66.56-129.05-87.01-50.05-21.17-103.22-31.9-158.03-31.9Z"/>
        <path d="M514.83,774.83c-69.45,0-134.74-27.04-183.85-76.15s-76.15-114.4-76.15-183.85,27.04-134.74,76.15-183.85,114.4-76.15,183.85-76.15,134.74,27.04,183.85,76.15,76.15,114.4,76.15,183.85-27.04,134.74-76.15,183.85-114.4,76.15-183.85,76.15ZM514.83,262.83c-67.31,0-130.59,26.21-178.19,73.81s-73.81,110.88-73.81,178.19,26.21,130.59,73.81,178.19c47.6,47.6,110.88,73.81,178.19,73.81s130.59-26.21,178.19-73.81c47.6-47.6,73.81-110.88,73.81-178.19s-26.21-130.59-73.81-178.19c-47.6-47.6-110.88-73.81-178.19-73.81Z"/>
        <path d="M514.83,620.83c-58.45,0-106-47.55-106-106s47.55-106,106-106,106,47.55,106,106-47.55,106-106,106ZM514.83,416.83c-54.04,0-98,43.96-98,98s43.96,98,98,98,98-43.96,98-98-43.96-98-98-98Z"/>
      </g>
    </g>
  </g>
</svg>